<svg version="1.2" xmlns="http://www.w3.org/2000/svg" viewBox="0 0 1732 959" width="1732" height="959">
	<style>
		.s0 { opacity: .1;fill: #030605 } 
		.s1 { fill: #f6f7ea } 
		.s2 { fill: #127854 } 
		.s3 { fill: #984e0b } 
	</style>
	<g id="Layer 1">
		<path id="Path 0" class="s0" d="m-136-2c0 1.99 0.67 2 235.5 2 234.83 0 235.5-0.01 235.5-2 0-1.99-0.67-2-235.5-2-234.83 0-235.5 0.01-235.5 2zm1529 0c0 1.99 0.67 2 235.5 2 234.83 0 235.5-0.01 235.5-2 0-1.99-0.67-2-235.5-2-234.83 0-235.5 0.01-235.5 2zm-1529 1004c0 1.99 0.67 2 235.5 2 234.83 0 235.5-0.01 235.5-2 0-1.99-0.67-2-235.5-2-234.83 0-235.5 0.01-235.5 2zm1529 0c0 1.99 0.67 2 235.5 2 234.83 0 235.5-0.01 235.5-2 0-1.99-0.67-2-235.5-2-234.83 0-235.5 0.01-235.5 2z"/>
		<path id="Path 1" class="s1" d="m335-2c0 1.99-0.67 2-235.5 2h-235.5v1000c470.33 0 471 0.01 471 2 0 2 0.67 2 529 2 528.33 0 529 0 529-2 0-1.99 0.67-2 235.5-2h235.5v-1000c-470.33 0-471-0.01-471-2 0-2-0.67-2-529-2-528.33 0-529 0-529 2z"/>
		<path id="Path 2" fill-rule="evenodd" class="s2" d="m906.75 102.07c1.24-0.04 3.26 0.96 4.5 2.22 1.24 1.26 3.62 4.3 5.28 6.75 1.79 2.63 4.67 5.23 7 6.35 2.19 1.04 5.55 1.87 7.47 1.85 1.92-0.01 5.08-0.82 7-1.79 1.92-0.97 7.89-4.61 13.25-8.1 5.36-3.49 10.54-6.36 11.5-6.36 0.96-0.01 6.7 3.62 12.75 8.06 6.05 4.44 12.58 8.5 14.5 9.01 1.92 0.51 4.96 0.93 6.75 0.93 1.79 0.01 6.51-0.5 10.5-1.12 3.99-0.62 8.38-0.87 9.75-0.55 1.38 0.31 4.08 1.67 9.5 5.47l5.5-2.48c3.03-1.37 6.85-2.51 8.5-2.55 1.65-0.03 5.03 0.89 7.5 2.06 2.47 1.17 9.67 6.67 16 12.24 7.6 6.7 13.87 11.28 18.5 13.53 3.85 1.87 11.5 4.56 17 5.99 8.44 2.18 11.4 2.5 19 2.05 4.95-0.3 13.05-1.64 18-3 4.95-1.35 9.07-2.38 9.16-2.29 0.08 0.09-3.29 3.11-7.5 6.72-4.21 3.61-11.59 9.46-16.4 13-4.8 3.54-8.74 6.78-8.75 7.19 0 0.41 1.45 0.47 3.24 0.14 1.79-0.34 5.5-1.62 8.25-2.85 2.75-1.23 8.37-4.83 12.5-8 4.12-3.17 9.08-6.42 11-7.22 2.61-1.08 4.14-1.19 6-0.42 1.57 0.65 3.33 2.9 4.75 6.07 1.24 2.77 2.24 5.37 2.23 5.78-0.01 0.41 0.86 3.68 1.93 7.25 1.68 5.6 3.38 8.16 12.24 18.5 5.65 6.6 11.77 14.48 13.58 17.5 1.86 3.1 3.28 6.81 3.25 8.5-0.03 1.65-0.69 4.13-1.48 5.5-0.79 1.38-1.45 2.84-1.46 3.25-0.02 0.41 0.63 1.43 1.46 2.25 0.83 0.82 2.4 1.5 3.5 1.5 1.1 0 6.16-1.64 11.25-3.65 5.13-2.03 10.81-3.6 12.75-3.53 1.92 0.07 4.12 0.7 4.88 1.4 1.02 0.94 1.25 3 0.87 7.78-0.28 3.57-0.98 7.4-1.55 8.5-0.58 1.1-2.21 6.5-3.63 12-2.37 9.14-2.94 10.3-10.83 17l4.88 3.62c2.68 1.99 6.46 4.45 8.38 5.47 2.34 1.23 5.65 1.85 10 1.86 4.92 0.02 8.2-0.68 13.5-2.87 4.4-1.81 8.93-2.92 12.21-2.98 4.11-0.08 5.51 0.32 6.68 1.9 0.81 1.1 2.4 6.95 3.53 13 1.12 6.05 2.97 17.07 4.09 24.5 1.12 7.43 2.99 16.43 4.14 20 1.15 3.57 3.32 8.52 4.82 11 1.51 2.48 3.81 6.98 5.13 10 2.07 4.73 2.38 6.96 2.29 16-0.06 5.77-0.65 12.52-1.3 15-0.65 2.48-2.15 6.98-3.32 10-1.18 3.02-4.55 9.32-7.49 14-2.95 4.68-5.63 9.63-5.95 11-0.33 1.38-1.33 3.32-2.21 4.33-1.48 1.66-3.42 1.81-22.12 1.67-11.28-0.08-21.51-0.11-22.75-0.07-1.92 0.06-2.25 0.62-2.25 3.82-0.01 2.06-0.82 5.1-1.81 6.75-1 1.65-3.58 3.89-5.75 4.98-2.89 1.46-5.94 1.99-11.44 1.98-6.1-0.01-8.43-0.49-12.5-2.6-2.75-1.43-8.6-5.59-13-9.26-4.4-3.66-8.9-6.93-10-7.25-1.28-0.38-4.69 0.86-9.5 3.45-4.13 2.22-9.08 4.36-11 4.76-2.76 0.57-4.61 0.16-8.75-1.92-2.89-1.45-6.04-2.65-7-2.65-0.96-0.01-4 1.41-6.75 3.16-2.75 1.74-9.05 5.1-14 7.45-4.95 2.35-12.38 5.2-16.5 6.34-4.13 1.14-9.19 2.06-11.25 2.06-2.06 0-5.55-0.9-7.75-2-2.2-1.1-5.01-2-6.25-2-1.24 0-5.85-2.33-10.25-5.17-4.4-2.84-8.64-6.1-9.42-7.25-0.78-1.14-3.3-3.88-5.61-6.08-2.31-2.2-6.29-5.01-8.84-6.25-4.62-2.25-4.63-2.25-6.88-0.27-1.24 1.09-3.15 1.98-4.25 1.98-1.1 0-6.28-1.09-11.5-2.43-8.02-2.04-9.94-2.94-12.31-5.73-1.54-1.81-3.79-4.99-5-7.06-1.2-2.07-3.61-4.54-5.36-5.5-2.82-1.55-3.35-1.58-4.89-0.24-0.94 0.82-3.01 3.86-7.44 12l-5.25-0.56c-2.89-0.31-6.26-0.76-7.5-1-1.24-0.24-2.25-1.12-2.25-1.94 0-0.82-1.06-2.74-2.36-4.25-1.29-1.51-4.23-3.65-6.53-4.75-2.29-1.1-4.15-2.23-4.12-2.5 0.03-0.27 2.3-1.51 10.01-5l4.25 2.52c3.44 2.03 4.49 2.27 5.53 1.25 0.73-0.73 1.16-3.01 1-5.34-0.25-3.62 0.14-4.44 3.6-7.5 2.13-1.89 5.35-5.45 7.16-7.93 1.8-2.48 4.42-6.75 5.81-9.5 1.5-2.95 3.15-8.89 4.03-14.5 0.82-5.23 1.79-15.35 2.16-22.5 0.37-7.15 1.07-15.14 1.56-17.75 0.5-2.61 2.27-6.66 3.95-9 1.9-2.65 3.13-5.66 3.25-7.98 0.15-2.79-0.43-4.39-2.3-6.33-1.84-1.92-3.55-2.62-6.5-2.67-2.2-0.04-5.58 0.65-7.5 1.53-1.92 0.88-5.56 3.76-8.07 6.4-2.87 3.01-5.42 7.04-6.83 10.8-1.24 3.3-3.59 10.95-5.23 17-1.63 6.05-4.41 14.11-6.17 17.91-2 4.32-4.73 8.24-7.29 10.5-2.26 1.97-6.53 4.37-9.5 5.32-2.98 0.96-12.38 2.42-20.91 3.25-8.53 0.84-22.25 1.97-30.5 2.53-8.25 0.55-21.08 1.44-28.5 1.98-7.42 0.54-18.9 1.91-25.5 3.04-6.6 1.13-16.95 3.37-23 4.98-6.05 1.61-15.27 4.52-20.5 6.47-5.23 1.94-11.98 4.99-15 6.78-3.02 1.78-8.66 6.39-12.52 10.24-4.54 4.52-8.03 9.12-9.87 13-1.57 3.3-3.23 8.48-3.7 11.5-0.46 3.02-0.58 7.3-0.26 9.5 0.52 3.6 0.32 4.13-2.03 5.25-1.44 0.69-3.75 1.25-5.12 1.25-1.38 0-3.74-0.63-5.25-1.4-1.51-0.78-3.73-2.47-4.93-3.75-1.25-1.35-3.54-7.03-5.38-13.35-2.32-7.94-3.1-12.43-2.82-16.12 0.28-3.8 1.21-6.25 6.8-13.88l-4.21-6.69c-2.32-3.68-6.23-9.93-8.71-13.89-3.09-4.94-6.62-8.89-11.25-12.56-3.71-2.95-6.74-5.92-6.73-6.61 0.01-0.69 0.83-3.05 1.82-5.25 0.99-2.2 3.62-6.7 5.85-10 2.22-3.3 5.86-7.8 8.07-10 2.21-2.2 6.66-5.54 9.88-7.41 3.22-1.88 9.01-5.31 12.86-7.63 3.85-2.32 8.24-5.62 9.75-7.34 1.51-1.71 2.75-4.24 2.75-5.62 0-2.17-0.36-2.44-2.75-2.03-1.51 0.26-5.67 1.01-9.25 1.66-5.35 0.98-7.1 0.94-9.87-0.22-1.85-0.77-5.1-3.66-7.22-6.41-2.98-3.87-3.86-5.9-3.87-9-0.01-3.66 0.56-4.53 6.72-10.24 5.78-5.35 6.73-6.7 6.64-9.5-0.06-1.79-0.47-5.51-0.92-8.26-0.75-4.65-0.64-5.1 1.61-6.4 1.93-1.13 5.54-1.28 18.16-0.75 15.58 0.64 15.77 0.63 17.18-1.6 0.79-1.24 2.45-4.95 3.69-8.25 1.43-3.83 2.27-8.35 2.31-12.5 0.06-5.09-0.51-7.69-2.59-12-1.47-3.02-2.9-6.18-3.18-7-0.29-0.82-0.1-3.07 0.42-5 0.53-1.93 2.18-4.39 3.69-5.48 1.78-1.28 4.81-2.1 8.73-2.34 3.35-0.2 8.99 0.34 12.75 1.23 3.71 0.87 7.87 1.59 9.25 1.59 1.56 0 3.28-1.04 4.57-2.75 1.14-1.51 5.02-8.6 8.63-15.75 3.61-7.15 6.73-13.11 6.93-13.25 0.2-0.14 3.63 1.76 7.62 4.23 3.99 2.46 9.61 5.38 12.5 6.5 2.89 1.11 6.94 2.02 9 2.03 2.06 0 4.76-0.67 6-1.5 1.44-0.97 2.24-2.49 2.21-4.26-0.02-1.79-1.42-4.23-4-7-2.18-2.34-4.41-5.94-4.95-8-0.55-2.06-1-5.21-1-7-0.01-2.04 0.86-4.18 2.33-5.74 1.57-1.67 3.79-2.65 6.75-2.99 2.43-0.27 5.08-1.06 5.9-1.76 0.81-0.69 5.3-5.31 9.96-10.26 4.67-4.95 11.42-11.89 15.02-15.41 3.59-3.53 8.33-7.21 10.53-8.18 2.2-0.97 5.01-1.8 6.25-1.84zm-310 176.94c2.77-0.01 4.12 0.98 9.14 6.74 3.24 3.71 7.63 7.58 9.75 8.6 2.59 1.25 5.01 1.67 7.36 1.28 1.92-0.31 9.24-4.18 16.25-8.6 7.01-4.42 13.54-8.02 14.5-8.01 0.96 0.01 6.7 3.63 12.75 8.04 6.05 4.41 12.58 8.52 14.5 9.12 2.32 0.73 6.2 0.83 11.5 0.29 4.4-0.45 10.04-0.86 12.52-0.9 3.29-0.05 5.34 0.56 7.5 2.25 1.74 1.34 4.02 2.19 5.48 2.02 1.38-0.16 3.84 0.68 5.5 1.87 1.65 1.2 4.58 2.47 10 3.49l-8.5 4.98c-4.67 2.74-10.44 6.86-12.82 9.15-2.38 2.29-6.26 6.87-8.63 10.17-2.38 3.3-5.51 8.25-6.96 11-1.71 3.24-2.64 6.58-2.65 9.5-0.01 2.86 0.67 5.41 1.86 7 1.04 1.38 4.26 4.3 7.17 6.5 4.04 3.05 6.92 6.66 19.03 26.5l-2.5 4.75c-1.87 3.54-2.5 6.28-2.5 10.75 0 3.69 1.16 10.04 3.02 16.5 1.67 5.77 4.14 12.41 5.5 14.75 1.8 3.09 3.92 4.95 7.73 6.81 4.05 1.98 6.28 2.46 9.75 2.09 2.48-0.26 5.62-0.76 7-1.12 2.25-0.57 2.8-0.06 5.5 5.11 1.65 3.16 5.48 8.24 8.5 11.3 3.14 3.17 8.51 7.12 12.5 9.19 3.85 1.99 9.25 4.33 12 5.2 2.75 0.87 7.7 2.03 11 2.58 3.3 0.56 11.4 1.48 18 2.04 6.6 0.57 24.6 1.7 40 2.52 15.4 0.82 39.7 1.95 54 2.5 14.3 0.56 29.37 1.26 33.5 1.56 4.12 0.3 10.87 1.03 15 1.62 4.12 0.58 9.75 1.88 12.5 2.89 2.85 1.04 6.4 3.35 8.25 5.39 2 2.2 3.25 4.62 3.26 6.32 0 1.51-0.79 3.86-1.75 5.21-0.97 1.35-4.91 3.91-8.76 5.69-3.85 1.77-11.72 4.36-17.5 5.74-5.78 1.38-14.33 3.04-19 3.7-5.23 0.73-14.47 0.98-24 0.66-11.36-0.38-18.7-1.21-27.5-3.12-6.6-1.43-17.17-4.36-23.5-6.51-6.33-2.15-17.58-6.26-25-9.13-7.42-2.88-20.7-7.68-29.5-10.67-8.8-2.98-22.08-6.95-29.5-8.81-7.42-1.86-17.33-4.08-22-4.94-4.67-0.86-14.58-2.24-22-3.06-7.42-0.82-20.25-1.49-28.5-1.49-9.85 0-19.29 0.67-27.5 1.94-6.88 1.06-16.33 2.82-21 3.92-4.67 1.09-11.88 3.18-16 4.65-4.13 1.46-12.45 5.06-18.5 7.99-6.05 2.93-15.73 8.43-21.5 12.22-5.77 3.79-14.49 10.24-19.36 14.33-4.87 4.08-10.88 9.91-13.36 12.93-2.47 3.02-6.23 8.42-8.34 12-2.12 3.58-5.09 9.65-6.61 13.5-2.57 6.53-2.76 8-2.76 22-0.01 13.65 0.22 15.68 2.62 22.5 1.45 4.13 2.56 7.65 2.47 7.83-0.09 0.19-1.4 0.07-2.91-0.25-1.51-0.32-3.99-1.66-5.5-2.98-2.42-2.11-2.71-2.97-2.4-7.25 0.28-3.77-0.05-5.21-1.5-6.46-1.02-0.88-3.43-2.13-5.35-2.76-1.92-0.64-5.19-1.16-7.25-1.15-2.06 0.01-4.42 0.25-5.25 0.52-0.83 0.27-1.5 1.4-1.5 2.5 0 1.1 2.36 4.54 5.25 7.65 2.89 3.1 7.73 7.54 10.75 9.85 3.02 2.32 6.85 4.89 8.5 5.72 1.65 0.83 5.25 2.04 8 2.68 4.3 1 5.59 1.93 9.25 6.63 2.34 3.01 4.5 6.03 4.8 6.72 0.34 0.78-1.07 1.89-3.75 2.97-2.37 0.94-7 3.45-10.3 5.58-3.3 2.13-6.9 4.17-8 4.53-1.2 0.38-3.06-0.05-4.63-1.09-1.45-0.96-4.94-3.65-7.75-5.99-3.01-2.5-6.15-4.25-7.62-4.25-1.38 0-4.41 1.36-6.75 3.03-2.34 1.66-4.92 3.01-5.75 2.99-0.83-0.02-3.19-0.48-5.25-1.03-2.44-0.64-5.51-2.82-8.79-6.24-2.77-2.89-6.45-5.92-8.17-6.75-1.73-0.83-3.31-1.95-3.51-2.5-0.21-0.55 1.21-2.12 3.14-3.5 1.93-1.37 4.02-3.4 4.65-4.5 0.83-1.47 0.84-2.6 0.03-4.25-1.05-2.15-1.65-2.25-13.35-2.28-11.82-0.02-12.51-0.14-19.75-3.47-4.13-1.9-8.51-3.46-9.75-3.47-1.24-0.02-3.49 0.44-5 1.02-1.51 0.58-5.11 3.5-8 6.5-3.89 4.04-5.96 5.44-8 5.43-1.51-0.01-4.55-0.85-6.75-1.87-2.2-1.02-5.01-2.92-6.24-4.23-1.31-1.38-3.51-6.67-5.25-12.63-1.66-5.64-3.01-12.5-3.01-15.25 0-2.75 0.45-6.12 1-7.5 0.55-1.37 2.46-3.83 7.5-8.41l-2.16-2.3c-1.18-1.26-4.82-6.34-8.07-11.29-3.26-4.95-7.47-10.75-9.35-12.89-1.88-2.14-5.33-5.18-7.67-6.75-2.87-1.93-4.26-3.59-4.27-5.11-0.02-1.24 0.71-4.05 1.61-6.25 0.9-2.2 3.95-7.33 6.78-11.4 2.82-4.07 6.97-9.02 9.21-11 2.24-1.98 7.19-5.13 11-6.99 3.81-1.87 9.62-5.28 12.92-7.58 3.3-2.3 7.01-5.62 8.25-7.36 1.24-1.74 2.02-3.84 1.75-4.67-0.44-1.33-1.1-1.33-5.75-0.03-2.89 0.8-7.61 1.7-10.5 2-5.13 0.52-5.34 0.44-9.35-3.72-2.25-2.34-4.95-5.6-5.99-7.25-1.05-1.65-1.89-4.12-1.87-5.5 0.02-1.37 0.58-3.45 1.25-4.61 0.66-1.15 3.69-4.11 12.21-11.03l-0.17-5.43c-0.09-2.99-0.47-7-0.85-8.93-0.6-3.1-0.38-3.64 1.92-4.75 1.48-0.71 6.39-1.25 11.35-1.24 4.81 0 11.45 0.43 14.75 0.95 3.78 0.59 6.65 0.59 7.75-0.01 0.96-0.52 2.81-3.31 4.11-6.2 1.29-2.89 2.91-7.95 3.59-11.25 0.68-3.3 0.93-7.57 0.55-9.5-0.38-1.93-2-5.98-3.59-9-1.6-3.02-2.91-6.51-2.91-7.75 0-1.24 0.56-3.4 1.25-4.81 0.69-1.41 3.05-3.43 5.25-4.49 2.2-1.06 6.02-1.92 8.5-1.92 2.48 0 8.22 0.78 12.76 1.73 5.73 1.21 8.75 1.43 9.88 0.74 0.89-0.55 3.63-4.6 6.09-9 2.46-4.4 6.12-11.23 11.77-22.38l6.5 4.1c3.58 2.25 9.31 5.15 12.75 6.44 3.44 1.29 7.94 2.33 10 2.31 2.17-0.01 4.5-0.75 5.53-1.75 0.98-0.94 1.77-2.96 1.75-4.47-0.02-1.55-1.27-4.17-2.85-6-1.55-1.79-3.58-4.37-4.51-5.75-1.05-1.56-1.68-4.47-1.68-7.75 0.01-4.22 0.49-5.74 2.46-7.75q2.46-2.5 5.75-2.5c1.82-0.01 4.65-0.83 6.3-1.83 1.65-1 6.6-5.82 11-10.71 4.4-4.9 10.32-11.39 13.15-14.43 2.84-3.04 7.11-6.54 9.5-7.77 2.39-1.23 5.81-2.24 7.6-2.25zm340.25 125.99l0.63 5.25c0.34 2.89 0.46 5.45 0.25 5.7-0.21 0.25-1.28 0.56-2.38 0.69-1.1 0.13-3.13 0.03-4.5-0.21-1.87-0.33-2.67-1.25-3.16-3.68-0.37-1.79-0.93-4.04-1.25-5q-0.59-1.75 1.16-2.13c0.96-0.22 3.44-0.44 9.25-0.62zm-28.5 3.08c5.95-0.16 6.02-0.13 8.75 3.88 1.51 2.22 2.75 4.27 2.75 4.54 0 0.27-13.84 0.45-30.75 0.39-16.91-0.06-33.45-0.41-42.75-1.47l4-1.22c2.2-0.67 8.27-1.69 13.5-2.27 5.23-0.58 16.02-1.64 24-2.37 7.97-0.72 17.2-1.39 20.5-1.48zm-221.25 162.07c0.41-0.08 0.75 0.98 0.75 2.35 0 1.38 0.56 3.66 1.25 5.07 1.04 2.14 1 2.71-0.25 3.46-0.83 0.49-3.3 1.16-5.5 1.49-2.83 0.42-4.44 0.16-5.5-0.87-1.32-1.3-2.04-1.18-6 0.94-3.6 1.94-6 2.42-12 2.43-4.43 0.01-8.26-0.5-9.36-1.25-1.72-1.17-1.74-1.41-0.25-3.02 0.88-0.96 5.1-3.06 9.36-4.67 4.26-1.61 10.67-3.4 14.25-3.99 3.58-0.58 7.85-1.22 9.5-1.42 1.65-0.21 3.34-0.44 3.75-0.52zm21.84 0.64c2.97 0.27 6.31 0.8 7.41 1.19 1.62 0.57 1.05 1.02-3 2.37-2.75 0.92-5.45 1.68-6 1.69-0.55 0.01-1.56-1.12-2.25-2.51-0.69-1.39-1.32-2.69-1.41-2.88-0.09-0.2 2.27-0.14 5.25 0.14zm186.22 39.65c1.75 0.29 5.89 0.99 9.19 1.55 3.3 0.56 6.11 1.02 6.25 1.02 0.14-0.01 0.27 0.78 0.28 1.74 0.02 0.96-0.99 3.07-2.25 4.68-1.25 1.61-4.53 3.97-7.28 5.24-2.75 1.27-6.24 2.31-10.5 2.33l0.49-8.25c0.26-4.54 0.51-8.38 0.55-8.55 0.04-0.16 1.51-0.05 3.27 0.24z"/>
		<path id="Path 3" class="s3" d="m985 298.85c-1.92 1.02-4.76 3.61-6.29 5.75-1.73 2.42-4.68 10.09-7.75 20.15-2.73 8.94-6.4 19.29-8.15 23-1.77 3.75-5.22 8.76-7.75 11.28-2.83 2.81-6.74 5.38-10.31 6.75-3.16 1.22-9.69 2.67-14.5 3.21-4.81 0.54-16.4 1.65-25.75 2.45-9.35 0.81-23.3 1.74-31 2.08-7.7 0.34-20.3 1.5-28 2.6-7.7 1.09-18.73 3.07-24.5 4.4-5.77 1.33-15 3.95-20.5 5.82-5.5 1.86-12.92 4.79-16.5 6.5-3.58 1.71-8.57 4.8-11.1 6.88-2.52 2.08-5.97 5.58-7.65 7.78-1.68 2.2-4.11 6.02-5.39 8.5-1.59 3.06-2.46 6.73-2.74 11.5-0.34 5.98 0 7.87 2.31 13 1.48 3.3 4.58 8.44 6.88 11.43 2.31 2.98 6.89 7.16 10.19 9.29 3.3 2.12 8.36 4.74 11.25 5.82 2.89 1.08 9.19 2.62 14 3.43 4.81 0.81 22.48 2.39 39.25 3.5 16.77 1.11 42.2 2.48 56.5 3.04 14.3 0.56 34.55 1.46 45 2 13.62 0.7 21.12 1.56 26.5 3.05 4.13 1.14 9.41 3.16 11.75 4.5 2.34 1.34 5.61 4.35 7.28 6.69 1.67 2.34 3.29 5.6 3.6 7.25 0.31 1.65 0.21 4.57-0.22 6.5-0.43 1.92-1.94 4.8-3.35 6.39-1.41 1.59-5.03 4.12-8.06 5.63-3.03 1.51-9.78 4.1-15 5.76-5.22 1.66-13.78 3.73-19 4.6-5.22 0.87-14.22 1.87-20 2.23-6.15 0.39-15.47 0.16-22.5-0.55-6.6-0.66-15.37-1.88-19.5-2.71-4.12-0.83-13.8-3.55-21.5-6.05-7.7-2.5-22.1-7.68-32-11.51-9.9-3.83-21.94-8.27-26.75-9.87-4.81-1.61-14.26-4.46-21-6.34-6.74-1.88-16.98-4.34-22.75-5.46-5.77-1.13-15.45-2.8-21.5-3.7-7.14-1.08-17.84-1.68-30.5-1.73-14.12-0.05-22.26 0.4-29.5 1.64-5.5 0.94-13.83 2.64-18.5 3.78-4.67 1.15-12.1 3.35-16.5 4.9-4.4 1.55-10.92 4.16-14.5 5.79-3.58 1.63-10.55 5.34-15.5 8.24-4.95 2.91-13.24 8.47-18.42 12.37-5.19 3.9-12.31 10.01-15.84 13.59-3.52 3.58-8.52 9.65-11.11 13.5-2.58 3.85-6 10.83-7.59 15.5-2.48 7.25-2.9 10.04-2.91 19 0 5.77 0.57 12.52 1.26 15 0.69 2.48 3 8.1 5.12 12.5 2.13 4.4 6.37 11.15 9.43 15 3.07 3.85 10.41 11.39 16.32 16.76 6.16 5.6 13.51 11.21 17.24 13.17 3.58 1.88 9.88 4.36 14 5.51 4.13 1.14 12.67 2.54 19 3.09 7.72 0.67 15.61 0.67 24-0.01 6.88-0.56 17.67-1.93 24-3.06 6.33-1.13 18.48-3.81 27-5.96 8.52-2.14 19.55-4.84 24.5-5.98 4.95-1.15 11.25-2.35 14-2.67 3.92-0.47 5.27-0.24 6.25 1.03 0.69 0.89 1.04 2.63 0.79 3.87-0.25 1.24-3.01 6.08-6.13 10.75-3.12 4.67-7.34 11.2-9.37 14.5-2.04 3.3-5.53 10.05-7.76 15-2.23 4.95-6.18 15.08-8.78 22.5-2.6 7.42-5.63 17.1-6.74 21.5-1.55 6.16-1.9 9.96-1.5 16.5 0.3 4.98 1.38 10.78 2.59 14 1.15 3.02 3.56 7.74 5.36 10.48 1.81 2.74 5.99 7.86 9.29 11.38 3.3 3.51 8.92 8.59 12.5 11.28 3.58 2.68 11.23 7.31 17 10.28 5.77 2.97 13.42 6.38 17 7.58 3.58 1.2 7.17 2.58 8 3.06 0.87 0.51-40.7 0.89-98.5 0.91-93.19 0.03-100.23 0.15-103.43 1.78-1.88 0.96-4.36 3.02-5.5 4.58-1.45 1.98-2.04 4.22-1.96 7.5 0.06 2.73 0.89 5.86 2 7.55 1.04 1.59 3.13 3.5 4.64 4.25 2.31 1.15 47.72 1.38 281.5 1.4l278.75 0.04c4.54-3.54 6.45-6.03 7.18-7.82 0.72-1.79 1.32-4.38 1.32-5.75 0-1.38-0.79-4.15-1.75-6.17-0.96-2.02-2.85-4.38-4.21-5.25-2.17-1.4-12.97-1.64-95.32-2.08l-92.88-0.5c10.53-7.75 19.48-15.85 26.67-23 7.19-7.15 15.74-16.6 18.99-21 3.26-4.4 7.82-12.05 10.13-17 2.32-4.95 6.1-15.3 8.4-23 2.29-7.7 4.78-15.58 5.53-17.5 0.84-2.15 2.44-3.95 4.15-4.67 1.56-0.66 10.28-1.4 19.79-1.68 12.56-0.38 18.57-1 23-2.36 3.3-1.02 9.37-3.92 13.5-6.45 4.12-2.53 8.74-6 10.25-7.72 1.51-1.71 2.97-4.25 3.25-5.62 0.36-1.78 1-2.37 2.25-2.04 0.96 0.25 4.9 0.98 8.75 1.63 3.85 0.64 10.15 0.96 14 0.7 4.39-0.29 8.49-1.25 11-2.57l4-2.1c-13.57 1.07-17.51 1.04-17.51 0.63 0.01-0.41 1.25-1.38 2.76-2.15 1.51-0.78 4.44-3.14 6.5-5.25 2.06-2.12 3.53-4.08 3.26-4.35-0.28-0.27-1.29 0.23-2.25 1.13-0.97 0.9-3.22 2.36-5.01 3.25-1.79 0.89-5.61 2.12-8.5 2.73-2.93 0.62-7.91 0.83-11.25 0.47l-6-0.65c-1.24-6.53-2.51-9.78-3.64-11.43-1.12-1.65-4.81-4.53-8.2-6.39-3.39-1.87-9.54-5.42-13.66-7.9-4.13-2.47-9.53-5.86-12-7.53-2.47-1.67-5.96-3.41-7.75-3.86-2.54-0.64-4.51-0.27-9 1.7l-5.75 2.53c-42.57-1.25-46.82-1.11-51.5 0.26-3.03 0.89-7.64 2.98-10.25 4.65-2.97 1.9-5.77 4.82-7.46 7.79-2.09 3.68-2.8 6.44-3.12 12.25-0.25 4.63 0.22 10.57 1.23 15.5 0.89 4.4 1.63 10.7 1.64 14 0 3.3-0.88 8.92-1.96 12.5-1.08 3.58-3.9 9.39-6.27 12.93-2.37 3.54-6.64 8.49-9.49 11-2.84 2.51-7.79 6.14-11 8.06-3.2 1.93-10.1 4.95-15.32 6.73-5.22 1.77-14.67 4.11-21 5.2-6.33 1.08-18.47 2.51-27 3.18-12.11 0.95-18.45 0.95-29 0.01-7.42-0.67-16.2-1.91-19.5-2.76-3.3-0.85-7.69-2.4-9.75-3.45-2.06-1.04-5.37-3.59-7.35-5.65-1.98-2.06-4.3-5.1-5.16-6.75-0.86-1.65-1.76-6.15-2.01-10-0.24-3.85 0.06-9.7 0.67-13 0.62-3.3 2.73-9.38 4.71-13.5 1.97-4.13 5.5-9.98 7.84-13 2.35-3.02 6.69-8.15 9.66-11.39 2.96-3.24 9.89-9.37 15.39-13.61 5.5-4.24 12.42-10.37 15.37-13.61 3.14-3.45 6.94-9.21 9.16-13.89 2.09-4.4 4.35-10.7 5.01-14 0.74-3.62 0.98-9.37 0.63-14.5-0.33-4.67-1.42-11.2-2.43-14.5-1.01-3.3-3.57-9.15-5.69-13-2.45-4.45-6.8-9.92-11.95-15.02-6.43-6.36-9.91-8.89-16.85-12.25-4.81-2.33-11.34-4.92-14.5-5.77-3.16-0.85-9.35-1.81-13.75-2.15-4.6-0.36-12.03-0.08-17.5 0.65-5.23 0.7-13.33 2.54-18 4.1-4.67 1.56-11.88 4.24-16 5.97-4.12 1.72-16.27 6.67-27 11.01-10.73 4.33-26.48 9.88-35 12.34-8.52 2.46-19.33 5.23-24 6.16-4.67 0.93-13.23 1.75-19 1.82-7.99 0.1-11.22-0.26-13.5-1.49-1.65-0.9-3.58-2.25-4.28-3-0.71-0.75-1.29-3.17-1.29-5.37 0-2.2 0.68-5.01 1.53-6.25 0.85-1.24 4.8-3.79 8.79-5.67 4.08-1.93 11.84-4.38 17.75-5.6 8.17-1.69 13.83-2.16 25.5-2.11 8.78 0.03 18.53 0.68 23.5 1.57 4.67 0.84 9.96 1.53 11.75 1.54 1.84 0.01 11.6-3.48 22.5-8.04 10.59-4.43 22.85-9.12 27.25-10.44 4.4-1.31 10.7-2.85 14-3.42 3.3-0.57 9.38-1.21 13.5-1.41 4.13-0.21 10.76 0.01 14.75 0.48 3.99 0.47 10.96 2.04 15.5 3.49 4.54 1.45 11.32 4.49 15.06 6.75 3.75 2.26 9.11 6.13 11.91 8.61 2.81 2.47 7 6.97 9.32 10 2.32 3.02 5.71 8.42 7.53 12 1.82 3.58 4.07 8.97 5 12l1.69 5.5c13.98 2.9 21.69 3.5 31.74 3.56 9.15 0.05 18.71-0.51 24.5-1.45 5.22-0.85 13.78-2.63 19-3.96 5.22-1.33 14-4.08 19.5-6.12 5.5-2.04 15.85-6.53 23-9.99 7.15-3.45 18.4-9.9 25-14.32 6.6-4.42 14.77-10.44 18.15-13.38 3.39-2.94 9.36-8.94 13.28-13.34 3.95-4.44 8.67-11.11 10.61-15 1.92-3.85 4.2-10.38 5.07-14.5 1.08-5.12 1.37-9.72 0.94-14.5-0.35-3.85-1.74-10.26-3.09-14.25-1.35-3.99-3.65-9.61-5.1-12.5-1.52-3.04-6.04-8.65-10.75-13.34-4.56-4.54-11.17-9.87-15.11-12.16-3.85-2.23-11.95-6.09-18-8.56-6.05-2.47-14.15-5.41-18-6.53-3.85-1.11-11.5-2.94-17-4.06-5.5-1.12-14.05-2.5-19-3.06-6.07-0.69-22.2-0.72-49.5-0.08-22.58 0.53-50.02 0.6-62 0.14-14.91-0.56-22.42-1.24-24.5-2.22-2.46-1.15-3-2.01-3-4.78 0-2.65 0.75-3.99 3.5-6.22 2.6-2.11 5.94-3.34 13-4.8 5.23-1.08 18.95-2.68 30.5-3.56 11.55-0.88 27.3-2.28 35-3.11 7.7-0.83 17.38-2.43 21.5-3.55 4.13-1.12 10.76-3.57 14.75-5.45 4.71-2.21 9.55-5.6 13.82-9.66 3.62-3.44 7.52-8.28 8.68-10.75 1.16-2.48 2.7-6.75 3.41-9.5 0.71-2.75 1.79-12.88 2.39-22.5 0.6-9.63 1.74-20.31 2.52-23.75 0.79-3.44 2.05-7.49 2.81-9 0.76-1.51 2.13-3.43 3.04-4.25 0.92-0.83 1.65-2.06 1.62-2.75-0.02-0.69-0.83-1.25-1.79-1.25-0.96-0.01-3.33 0.83-5.25 1.85zm-396 603.15v32c35.43-0.5 36.82-0.67 42-3.07 3.02-1.41 7.27-4.33 9.44-6.49 2.16-2.17 5.07-6.42 6.46-9.44 1.98-4.3 2.54-7.15 2.56-13.02 0.03-6.43-0.41-8.46-3.1-14-1.91-3.93-4.66-7.7-7-9.59-2.12-1.72-5.21-3.8-6.86-4.63-1.65-0.83-5.36-2.02-8.25-2.64-2.89-0.62-12-1.12-20.25-1.12h-15zm262.46-30.27c-2.77 0.97-6.41 2.89-8.07 4.27-1.67 1.37-4.2 3.85-5.63 5.5-1.43 1.65-3.36 4.8-4.29 7-0.93 2.2-2.04 6.25-2.48 9-0.46 2.88-0.37 7.34 0.21 10.5 0.55 3.02 2.08 7.64 3.4 10.25 1.34 2.64 4.51 6.43 7.15 8.54 2.61 2.09 7.23 4.62 10.25 5.63 3.09 1.03 8.35 1.82 12 1.82 3.58-0.01 8.98-0.73 12-1.6 3.03-0.88 6.96-2.51 8.75-3.62l3.25-2.02-0.5-25.5h-7l-1 22c-5.42 2.7-9.25 3.77-12 4.12q-5 0.63-10.75-0.99c-3.73-1.06-7.2-2.95-9.87-5.38-2.27-2.06-5.07-5.55-6.23-7.75-1.6-3.04-2.1-5.81-2.1-11.5 0-5.75 0.5-8.43 2.14-11.5 1.17-2.2 3.64-5.41 5.47-7.14 1.84-1.72 4.8-3.86 6.59-4.75 1.79-0.88 4.94-1.89 7-2.23 2.06-0.34 5.78-0.34 8.25 0 2.48 0.34 7.09 2.19 10.25 4.12l5.75 3.5 4-5c-3.49-3.29-6.52-5.18-9-6.31-3.21-1.47-7.09-2.16-13.5-2.4-6.74-0.25-10.26 0.11-14.04 1.44zm52.64 30.18l-0.1 32.09c32.31 0.02 37.76-0.36 42-1.62 3.03-0.91 6.68-2.83 8.12-4.26 1.44-1.44 3.13-4.53 3.75-6.87 0.62-2.34 0.82-5.94 0.45-8-0.42-2.26-2.1-5.26-4.25-7.56-1.97-2.09-4.36-4-5.32-4.25-1.52-0.38-1.43-0.7 0.75-2.44 1.38-1.1 3.17-3.35 4-5 0.83-1.65 1.5-4.91 1.5-7.25 0.01-2.34-0.83-5.83-1.86-7.75-1.21-2.25-3.6-4.39-6.73-6-4.57-2.36-5.92-2.52-23.53-2.84l-18.69-0.35zm229.7-22.15l-0.29 5.75c-8.05 0.47-8.5 0.76-8.5 3 0 2 0.5 2.5 2.5 2.5 1.37 0 3.17 0.22 4 0.5 1.24 0.41 1.5 3.04 1.52 15.25 0.02 12.16 0.34 15.45 1.86 18.75 1.01 2.2 2.85 4.9 4.09 6 1.43 1.26 4.14 2.15 7.39 2.41 3.09 0.24 6.45-0.16 8.42-1 1.81-0.78 3.27-2.09 3.24-2.91-0.03-0.83-0.39-2.11-0.79-2.85-0.57-1.05-1.25-1.1-2.98-0.25-1.24 0.6-3.6 1.1-5.25 1.1-1.87 0-3.95-0.95-5.5-2.5-2.46-2.46-2.5-2.77-2.5-18.5v-16l14.5 0.33v-5.83l-14.5-0.5v-11h-6.91zm-460.3 6.77c-2.2 0.79-5.12 2.27-6.5 3.3-1.37 1.02-3.85 3.77-5.5 6.11-2.58 3.64-3.05 5.31-3.35 11.9-0.24 5.16 0.12 8.81 1.1 11.17 0.8 1.92 2.76 5.04 4.35 6.92 1.6 1.88 5.15 4.46 7.9 5.74 3.66 1.69 6.81 2.32 11.75 2.33 3.72 0 7.99-0.47 9.5-1.05 1.52-0.58 4.21-2.05 6-3.25 1.78-1.21 3.23-2.64 3.22-3.19-0.01-0.55-0.68-1.79-1.49-2.75-1.39-1.66-1.68-1.62-5.23 0.75-2.06 1.37-5.32 2.77-7.25 3.12-1.92 0.34-5.63 0.34-8.25 0-3.6-0.47-5.72-1.53-8.8-4.37-2.23-2.07-4.26-4.54-4.5-5.5-0.25-0.97-0.67-2.65-0.95-3.75-0.48-1.95 0-2 19.5-2h20c-0.03-7.37-0.85-11.3-1.84-13.5-1-2.2-3.8-5.69-6.23-7.74-2.44-2.06-6.34-4.2-8.68-4.75-2.33-0.56-5.71-0.99-7.5-0.97-1.78 0.02-5.05 0.69-7.25 1.48zm54 0.75c-2.75 1.31-6.69 4.37-8.76 6.8-2.67 3.15-4.07 6.01-4.85 9.93-0.6 3.02-0.82 7.18-0.49 9.25 0.33 2.06 1.46 5.43 2.52 7.5 1.05 2.06 3.41 5.19 5.25 6.95 1.83 1.76 5.02 3.89 7.08 4.75 2.07 0.85 6.57 1.56 10 1.57 3.44 0.01 8.28-0.69 10.75-1.56 2.48-0.86 5.31-2.34 6.29-3.27 0.98-0.93 1.77-2.14 1.76-2.69-0.01-0.55-0.65-1.9-1.44-3-1.34-1.89-1.53-1.91-3.27-0.31-1.01 0.93-3.52 2.39-5.59 3.25-2.06 0.85-5.66 1.55-8 1.54-2.38-0.01-6.19-0.99-8.67-2.25-2.44-1.23-5.48-3.81-6.76-5.73-1.28-1.93-2.32-4.52-2.32-5.75v-2.25h40c0.02-4.27-0.66-7.75-1.5-10.5-0.84-2.75-2.65-6.47-4.01-8.25-1.37-1.79-4.4-4.22-6.74-5.39-2.39-1.21-6.87-2.33-10.25-2.56-4.82-0.33-6.97 0.05-11 1.97zm63.47-1.04c-1.94 0.7-5.2 2.5-7.25 4.02l-3.72 2.75c0-6.84-0.16-7-3.5-7h-3.5v65h7c0-18.6 0.34-24.02 0.75-24.04 0.42-0.01 1.65 0.91 2.75 2.05 1.1 1.14 3.8 2.77 6 3.62 2.61 1.01 6.29 1.43 10.57 1.21 5.2-0.27 7.6-0.98 11.5-3.38 3.16-1.95 5.83-4.65 7.43-7.5 2.13-3.8 2.5-5.75 2.5-13.04 0-7.82-0.27-9.02-3.05-13.5-1.76-2.84-4.93-6.1-7.5-7.71-3.14-1.97-6.21-2.93-10.45-3.27-3.56-0.28-7.43 0.04-9.53 0.79zm193.84-0.36c-1.48 0.45-3.96 1.5-5.5 2.34-1.54 0.83-4.49 3.49-6.54 5.9-2.07 2.43-4.19 6.28-4.75 8.64-0.56 2.33-1.01 6.16-1.01 8.5 0.01 2.33 1.06 6.5 2.33 9.25 1.28 2.75 3.86 6.28 5.74 7.86 1.88 1.57 5 3.53 6.92 4.34 1.93 0.82 6.43 1.48 10 1.47 5.2-0.01 7.61-0.58 12-2.87 4.34-2.26 6.18-4.02 8.72-8.33 1.77-3.01 3.47-7.27 3.78-9.47 0.32-2.2 0.1-6.25-0.46-9-0.58-2.77-2.49-6.96-4.29-9.4-1.78-2.41-5.27-5.53-7.75-6.93-3.12-1.76-6.33-2.62-10.5-2.83-3.3-0.16-7.21 0.08-8.69 0.53zm55.69 0.6c-2.2 0.83-5.57 2.8-7.5 4.38-1.92 1.58-4.61 5.07-5.98 7.76-1.91 3.77-2.47 6.38-2.43 11.39 0.04 4.81 0.66 7.66 2.41 11 1.29 2.47 3.51 5.57 4.93 6.88 1.41 1.31 4.37 3.22 6.57 4.23 2.68 1.23 6.32 1.84 11 1.84 4.6 0 8.37-0.62 11-1.8 2.2-0.99 5.71-3.8 7.79-6.23 2.08-2.43 4.22-6 4.74-7.92 0.53-1.93 0.97-5.75 0.98-8.5 0.02-2.75-0.49-6.58-1.13-8.5-0.63-1.93-2.22-4.97-3.51-6.75-1.3-1.79-4.5-4.46-7.12-5.94-3.49-1.98-6.46-2.78-11.25-3.02-4.11-0.21-7.96 0.23-10.5 1.18zm52.5 0.09c-2.47 0.79-5.74 2.67-7.27 4.19-1.52 1.51-3.04 4.32-3.37 6.25-0.38 2.27-0.02 4.63 1.03 6.75 0.89 1.78 2.85 4.03 4.36 4.98 1.52 0.95 7.03 2.75 12.25 3.99 5.23 1.24 10.31 3.05 11.29 4.02 0.98 0.96 1.78 2.88 1.78 4.26 0 1.37-0.96 3.4-2.14 4.5-1.78 1.66-3.52 2-10.28 2-6.07 0-9.23-0.51-12.38-2-4.04-1.91-4.32-1.92-6-0.25-1.09 1.07-1.48 2.32-1.02 3.25 0.42 0.82 3.23 2.4 6.25 3.5 3.75 1.36 7.97 1.99 13.25 1.98 6.01-0.01 8.75-0.51 12.2-2.25 2.45-1.23 5.29-3.58 6.31-5.23 1.35-2.18 1.72-4.24 1.38-7.5-0.32-3.06-1.22-5.16-2.8-6.55-1.29-1.13-4.59-2.79-7.34-3.69-2.75-0.9-7.58-2.11-10.75-2.7-3.24-0.6-6.9-2.05-8.38-3.31-2.1-1.79-2.51-2.82-2-5 0.37-1.61 1.99-3.59 3.88-4.75 1.91-1.17 5.01-2 7.5-2 2.34 0 6.62 0.9 9.5 2.01l5.25 2.02c3.64-4.49 3.63-4.57 1.34-6.31-1.28-0.98-4.47-2.21-7.09-2.75-2.61-0.54-6.43-0.94-8.5-0.91-2.06 0.04-5.77 0.71-8.25 1.5zm-507.95 78.1c-1.17 0.41-1.41 2.84-1.25 12.92 0.17 10.28 0.46 12.42 1.7 12.42 1.09 0 1.5-1.11 1.5-4v-4c7.75 0 11.24-0.62 12.75-1.36 1.52-0.75 3.09-2.1 3.5-3 0.42-0.91 0.77-2.88 0.8-4.39 0.02-1.52-0.77-3.79-1.75-5.05-0.99-1.27-3.6-2.72-5.8-3.23-2.2-0.51-5.35-0.9-7-0.87-1.65 0.03-3.65 0.28-4.45 0.56zm21.9 0.12c0.02 0.39 2.07 4.2 4.55 8.47 3.52 6.06 4.5 8.73 4.5 12.25 0 3.33 0.39 4.5 1.5 4.5 1.1 0 1.5-1.14 1.51-4.25 0-3.09 0.84-5.49 3.05-8.75 1.68-2.48 3.92-6.19 5-8.25 1.37-2.65 1.58-3.76 0.69-3.79-0.68-0.02-2.93 2.68-5 6-2.06 3.32-4.08 6.24-4.5 6.48-0.41 0.25-2.39-2.34-4.4-5.75-2.01-3.4-4.39-6.52-5.29-6.91-0.91-0.4-1.63-0.4-1.61 0zm23.12 0.65c-0.05 1.2 0.98 1.57 4.43 1.57h4.5c0 21.05 0.26 23 1.5 23 1.25 0 1.5-1.95 1.5-11.5v-11.5c6.98 0 9-0.45 9-1 0-0.55-1.01-1.17-2.25-1.37-1.23-0.21-5.93-0.46-10.43-0.57-6.82-0.17-8.19 0.06-8.25 1.37zm25.05 11.48c-0.1 11.02 0.12 13.09 1.38 13.09 1.17 0 1.5-1.34 1.5-6v-6l15.5 0.5c0 10.56 0.29 11.5 1.75 11.5 1.28 0 1.64-0.62 1.33-2.25-0.24-1.24-0.46-6.87-0.5-12.5-0.05-6.12-0.48-10.25-1.08-10.25-0.55 0-1.11 2.36-1.25 5.25l-0.25 5.25-15.5 0.5c-0.38-8.79-1.01-11.53-1.63-11.76-0.8-0.29-1.17 3.39-1.25 12.67zm36.38-11.84c-1.65 0.52-3.83 1.74-4.85 2.69-1.02 0.96-2.48 2.97-3.25 4.49-0.77 1.51-1.4 3.87-1.4 5.25 0 1.37 0.68 3.85 1.5 5.5 0.83 1.65 2.74 3.91 4.25 5.03 1.89 1.39 4.25 2.02 7.5 2 2.65-0.02 6.09-0.81 7.77-1.78 1.66-0.97 3.69-3.22 4.5-5 0.82-1.79 1.48-4.38 1.48-5.75 0-1.38-0.6-3.97-1.33-5.75-0.73-1.79-2.42-3.99-3.75-4.89-1.33-0.9-3.99-1.89-5.92-2.2-1.92-0.3-4.85-0.12-6.5 0.41zm42.29 9.18l-0.29 10.25c-12.01-15.12-16.17-19.5-17-19.5-1.25 0-1.5 2.05-1.5 12.5 0 10.44 0.25 12.5 1.5 12.5 1.23 0 1.5-1.73 1.5-9.5 0-5.23 0.34-9.48 0.75-9.45 0.42 0.04 3.93 4.2 7.81 9.25 3.88 5.06 7.81 9.31 8.75 9.45 1.52 0.22 1.69-1.09 1.69-12.75 0-10.76-0.25-13-1.46-13-1.18 0-1.52 2.04-1.75 10.25zm47.72-9.62c-1.87 0.48-1.98 1.26-1.75 12.94 0.2 10.27 0.5 12.43 1.74 12.43 1.09 0 1.5-1.11 1.5-4v-4c8.64 0 9.23 0.32 11.75 4.04 1.52 2.22 3.32 4.02 4 4 0.69-0.03 1.24-0.38 1.23-0.79-0.02-0.42-1.14-2.22-2.5-4l-2.48-3.25c4.49-4.49 4.95-5.86 4.75-9.15-0.18-3.1-0.88-4.62-2.75-5.98-1.41-1.04-4.89-2.03-8-2.29-3.02-0.25-6.39-0.23-7.49 0.05zm32.99 0.07c-1.1 0.3-3.07 1.28-4.38 2.18-1.31 0.89-3 2.85-3.75 4.37-0.75 1.51-1.37 4.1-1.37 5.75 0 1.65 0.79 4.63 1.75 6.63 0.97 2.01 3.1 4.31 4.75 5.12 1.65 0.81 5.03 1.44 7.5 1.39 2.48-0.05 5.52-0.77 6.75-1.61 1.24-0.85 3.02-2.77 3.96-4.28 1.05-1.7 1.64-4.48 1.53-7.25-0.1-2.48-0.86-5.52-1.71-6.75-0.84-1.24-2.54-2.93-3.78-3.75-1.23-0.82-3.82-1.68-5.75-1.92-1.92-0.24-4.4-0.19-5.5 0.12zm22.55-0.04c-0.79 0.28-1.36 0.92-1.25 1.42 0.11 0.5 2.23 0.92 4.7 0.92h4.5c0 18.36-0.15 19.07-2.25 20.1-1.74 0.85-2.98 0.74-5.5-0.5-2.41-1.19-3.25-1.28-3.26-0.35-0.01 0.68 0.55 1.82 1.25 2.51 0.69 0.7 3.18 1.26 5.51 1.25 3.29-0.01 4.6-0.53 5.76-2.26 1.11-1.66 1.51-5.07 1.5-13l-0.01-10.75c-7.36 0.12-10.15 0.38-10.95 0.66zm48.45 1.17c-2.75 1.24-4.54 2.95-5.75 5.48-0.96 2.03-1.75 4.81-1.75 6.19 0 1.37 0.68 3.85 1.5 5.5 0.83 1.65 2.74 3.91 4.25 5.03 1.89 1.39 4.25 2.02 7.5 2 2.62-0.02 5.65-0.48 6.75-1.03 1.1-0.55 2-1.68 2-2.5 0-0.83-0.11-1.51-0.25-1.53-0.13-0.01-1.71 0.67-3.5 1.5-2.25 1.06-4.37 1.3-6.9 0.78-2.24-0.46-4.61-1.92-6.12-3.75-2.02-2.47-2.38-3.8-2.02-7.47 0.33-3.26 1.17-5.08 3.12-6.75 1.85-1.58 3.99-2.3 6.92-2.33 2.67-0.03 4.72 0.53 5.5 1.5 0.69 0.85 1.7 1.32 2.25 1.05 0.55-0.28 1-0.95 1-1.5 0-0.55-1.57-1.68-3.5-2.5-1.92-0.83-4.28-1.49-5.25-1.48-0.96 0.01-3.55 0.83-5.75 1.81zm18.75-1.2c-1.23 0.2-2.25 0.82-2.25 1.37 0 0.55 2.03 1 4.5 1 3.86 0 4.57 0.32 4.99 2.25 0.27 1.23 0.49 6.41 0.5 11.5 0.01 5.15 0.46 9.47 1.01 9.75 0.64 0.32 1-3.84 1-11.5v-12c7.75 0 10.01-0.34 10.02-0.75 0.01-0.42-2.13-1.09-4.75-1.51-2.62-0.42-6.57-0.69-8.77-0.61-2.2 0.07-5.01 0.3-6.25 0.5zm36.25 0.52c-1.1 0.6-2.57 1.83-3.26 2.72-0.7 0.89-1.26 2.64-1.25 3.88 0.01 1.23 0.92 3.03 2.03 4 1.1 0.96 4.32 2.42 7.13 3.25 2.82 0.82 5.63 2.26 6.24 3.19 0.88 1.33 0.69 2.13-0.89 3.78-1.18 1.24-3.22 2.08-5 2.05-1.65-0.02-4.35-0.72-6-1.56-1.65-0.84-3.11-1.51-3.25-1.49-0.13 0.01-0.25 0.7-0.25 1.53 0 0.82 0.9 1.95 2 2.5 1.1 0.55 4.45 1 7.43 1 3.46 0 6-0.55 7-1.5 0.87-0.83 1.8-2.4 2.07-3.5 0.28-1.1-0.17-3.13-1-4.5-0.98-1.64-3.31-3.07-6.75-4.14-2.88-0.89-5.83-2.13-6.54-2.75-0.71-0.61-1.28-1.9-1.25-2.86 0.02-0.97 1.06-2.26 2.29-2.89 1.36-0.68 4.15-0.88 7-0.5 3.56 0.48 4.67 0.32 4.41-0.61-0.18-0.69-1.42-1.55-2.75-1.9-1.32-0.36-3.53-0.69-4.91-0.72-1.37-0.04-3.4 0.42-4.5 1.02zm67.95-0.46c-0.43 0.35-0.7 4.84-0.61 9.97 0.15 8.66 0.36 9.56 2.91 12.42 2.27 2.54 3.58 3.1 7.48 3.25 3.97 0.14 5.18-0.28 7.5-2.6 2.62-2.62 2.79-3.34 3.02-12.75 0.21-8.32 0-9.98-1.25-9.98-1.22 0-1.49 1.62-1.45 8.75 0.03 7.2-0.31 9.19-1.92 11.25-1.45 1.86-2.89 2.5-5.63 2.5-2.73 0-4.17-0.64-5.63-2.5-1.63-2.09-1.93-3.95-1.81-11.19 0.08-4.89-0.29-8.93-0.85-9.23-0.54-0.29-1.34-0.24-1.76 0.11zm35.63-0.01c-1.33 0.26-3.92 2.01-5.75 3.89-2.82 2.91-3.33 4.14-3.32 8.18 0 2.8 0.72 5.85 1.75 7.45 0.96 1.49 2.87 3.47 4.24 4.41 1.43 0.98 4.43 1.72 7 1.73 2.55 0.01 5.81-0.75 7.5-1.75 2.32-1.37 2.73-2.03 1.8-2.93-0.92-0.89-1.52-0.86-2.5 0.11-0.72 0.7-3.55 1.32-6.3 1.38-4.41 0.1-5.32-0.26-7.75-3.02-2.02-2.3-2.75-4.2-2.75-7.13 0-2.96 0.72-4.81 2.78-7.1 2.5-2.79 3.22-3.05 7.25-2.62 2.46 0.26 5.49 0.75 6.72 1.09 1.25 0.35 2.25 0.18 2.25-0.37 0-0.55-0.78-1.41-1.75-1.91-0.96-0.5-3.32-1.12-5.25-1.39-1.92-0.27-4.59-0.28-5.92-0.02zm58.42-0.02c-0.45 0.37-0.76 4.76-0.68 9.75 0.08 5-0.18 9.61-0.58 10.26-0.41 0.65-1.97 1.66-3.49 2.25-1.53 0.6-3.92 0.74-5.4 0.33-1.46-0.42-3.26-1.65-4.01-2.75-0.88-1.31-1.35-5.04-1.34-10.75 0-7.12-0.28-8.75-1.5-8.75-1.25 0-1.45 1.67-1.25 10.08 0.24 9.61 0.38 10.21 3 12.5 2.13 1.87 3.89 2.42 7.8 2.42 4.06 0 5.52-0.49 7.5-2.5 2.29-2.34 2.45-3.2 2.45-13 0-5.78-0.37-10.5-0.83-10.5-0.46 0-1.21 0.3-1.67 0.66zm12.01 0.03c-1.87 0.43-1.98 1.19-1.75 12.88 0.2 10.27 0.5 12.43 1.74 12.43 1.09 0 1.5-1.11 1.5-4v-4c8.09-0.08 8.8 0.31 11.5 4 1.65 2.24 3.57 4.06 4.25 4.04 0.69-0.03 1.31-0.29 1.39-0.6 0.07-0.3-1.06-2.1-2.5-4l-2.64-3.44c4.22-4.22 5-6.1 5-8.5 0-2.4-0.78-4.29-2.5-6-1.92-1.93-3.53-2.5-7-2.5-2.47 0-5.06-0.18-5.75-0.38-0.68-0.21-2.14-0.18-3.24 0.07zm30.24 0.06l-4.75 0.25v25c14.34 0 18-0.41 18-1 0-0.58-3.16-1-7.5-1h-7.5v-10c10.17 0 13-0.44 13-1 0-0.57-2.83-1-6.5-1h-6.5v-9c11 0 14-0.43 14-1 0-0.55-0.56-1.06-1.25-1.13-0.68-0.07-2.37-0.19-3.75-0.25-1.37-0.07-4.63-0.01-7.25 0.13zm-390.75 12.75c0 10.44 0.25 12.5 1.5 12.5 1.09 0 1.5-1.11 1.5-4v-4c10.01 0.06 12.22-0.46 14.25-1.97 2.24-1.66 2.76-2.82 2.78-6.28 0.02-3.13-0.58-4.84-2.25-6.48-1.95-1.92-3.37-2.23-10.03-2.25l-7.75-0.02zm102 0v12.5c14.34 0 18-0.41 18-1 0-0.58-3.16-1-7.5-1h-7.5v-10c10.17 0 13-0.44 13-1 0-0.57-2.83-1-6.5-1h-6.5v-9c11 0 14-0.43 14-1 0-0.59-3.5-1-8.5-1h-8.5zm100-11.5c0 0.55 2.03 1 4.5 1h4.5c0 21.05 0.26 23 1.5 23 1.25 0 1.5-1.95 1.5-11.5v-11.5c7.75 0 10-0.45 10-1 0-0.61-4.33-1-11-1-6.66 0-11 0.39-11 1zm26 11.5c0 10.44 0.25 12.5 1.5 12.5 1.09 0 1.5-1.11 1.5-4v-4c8.12-0.08 8.75 0.28 11.25 3.96 1.52 2.22 3.43 4.04 4.25 4.04 0.89 0 1.23-0.51 0.84-1.25-0.37-0.69-1.49-2.49-2.5-4-1.82-2.73-1.81-2.79 0.77-6 2.1-2.61 2.5-3.95 2.04-6.75-0.32-1.93-1.61-4.31-2.87-5.3-1.73-1.36-4.02-1.78-9.53-1.75l-7.25 0.05zm78-11.5c0 0.55 1.8 1 4 1h4c0 21.05 0.26 23 1.5 23 1.25 0 1.5-1.95 1.5-11.5v-11.5c6.98 0 9-0.45 9-1 0-0.6-4-1-10-1-6 0-10 0.4-10 1z"/>
		<path id="Path 4" class="s1" d="m1000.25 388.49c-1.24 0.83-2.51 2.97-2.84 4.76-0.45 2.49 0.24 4.88 2.94 10.25 1.93 3.85 4.78 8.27 6.33 9.82l2.82 2.83c5.42-4.53 7.61-7.15 8.35-8.74 0.74-1.6 1.1-4.04 0.8-5.41-0.3-1.38-3.04-5.31-6.1-8.75q-5.55-6.24-7.8-6.26c-1.24 0-3.26 0.67-4.5 1.5zm38.75 21.71c-0.77 0.66-1.31 1.78-1.2 2.5 0.11 0.72 1.89 2.59 3.95 4.16 2.06 1.58 5.21 3.6 7 4.5 1.79 0.9 4.15 1.64 5.25 1.64 1.1 0 2.23-0.79 2.51-1.75 0.29-0.96-0.16-2.76-1-4-0.83-1.24-3.65-3.61-6.26-5.26-2.61-1.66-5.67-3.01-6.8-3-1.13 0-2.68 0.55-3.45 1.21zm54.62 0.74c-0.34 0.59-4.45 3.54-9.12 6.56-6 3.88-8.5 6.09-8.5 7.5q0 2 2 2c1.1 0 4.25-1.13 7-2.5 2.75-1.38 6.82-4.19 9.05-6.25 2.64-2.44 3.94-4.45 3.73-5.75-0.17-1.1-1.04-2.14-1.93-2.31-0.89-0.16-1.89 0.17-2.23 0.75zm2.71 15.97c-4.86 3.25-10.18 7.29-11.83 8.98q-3.01 3.06-2.25 4.58c0.41 0.84 1.99 1.54 3.5 1.55 1.51 0.01 5-1.45 7.75-3.24 2.75-1.8 7.35-5.52 10.23-8.27 3.24-3.1 5.24-5.87 5.25-7.26 0.01-1.56-0.57-2.25-1.9-2.25-1.06 0-5.89 2.66-10.75 5.91zm-37.4 234.87c-2.79 1.4-3.49 2.38-3.74 5.22-0.21 2.36 0.36 4.4 1.75 6.25 1.13 1.51 2.62 2.76 3.31 2.77 0.69 0.01 1.58-1.68 1.99-3.75 0.41-2.07 0.74-5.01 0.75-6.52 0.01-1.53-0.54-2.76-1.24-2.77q-1.24-0.01 0.25-0.94c0.83-0.51 1.24-1.17 0.93-1.45-0.31-0.29-2.11 0.24-4 1.19zm6.83 2.06c-0.18 0.47-0.77 3.38-1.3 6.49q-0.96 5.62 0.04 5.33c0.55-0.16 1.9-1.72 3-3.46 1.88-2.97 2.27-3.12 6.5-2.58l4.5 0.57c-5.42-3.86-7.11-4.58-7.25-4.08-0.14 0.49-0.7 0.89-1.25 0.89-0.55 0-1.22-0.9-1.5-2-0.28-1.1-0.93-2-1.45-2-0.52 0-1.1 0.38-1.29 0.84zm-469.51 213.08c-0.32 0.23-0.51 11.59-0.42 25.25l0.17 24.83 29.68-0.5c9.47-6.22 11.51-8.48 13.58-12.56 2.04-4.02 2.76-6.87 2.74-10.94-0.02-3.03-0.59-7.25-1.27-9.39-0.67-2.15-2.61-5.52-4.3-7.5-1.69-1.99-4.84-4.74-7-6.11-3.6-2.29-5.15-2.54-18.27-3-7.88-0.28-14.6-0.31-14.91-0.08zm315.75 10.58v10.5c23.5 0 27.78-0.39 30-1.5 1.65-0.83 3.68-2.51 4.51-3.75 0.83-1.24 1.5-3.49 1.5-5-0.01-1.51-0.68-4.1-1.51-5.75-0.93-1.87-2.73-3.38-4.75-4.02-1.79-0.56-9.21-1.01-16.5-1l-13.25 0.02zm-238.73 6.25c-2.33 1.51-5.12 4.33-6.22 6.25-1.09 1.92-2 4.29-2.02 5.25-0.03 1.6 1.41 1.75 16.47 1.75h16.5c-0.88-4.26-1.91-6.85-2.84-8.5-0.94-1.65-3.72-4.02-6.18-5.26-2.47-1.24-6.06-2.25-7.98-2.25-2.12 0.01-5.17 1.1-7.73 2.76zm57.07-0.84c-2.29 1.02-5.07 3.15-6.19 4.72-1.12 1.58-2.4 4.35-2.84 6.17l-0.81 3.3c32.36-0.59 32.99-0.68 32.68-2.6-0.18-1.1-1.12-3.58-2.11-5.5-1.12-2.2-3.42-4.34-6.18-5.77-2.41-1.25-5.74-2.25-7.39-2.23-1.65 0.02-4.87 0.88-7.16 1.91zm59.85 0.2c-2.37 1.16-5.14 3.3-6.16 4.75-1.02 1.45-2.38 3.99-3.02 5.64-0.67 1.72-0.92 5.13-0.59 8 0.31 2.75 1.59 6.58 2.83 8.5 1.25 1.92 4.29 4.52 6.76 5.76 2.47 1.24 5.95 2.25 7.74 2.25 1.79-0.01 5.11-0.8 7.39-1.76 2.98-1.26 4.87-3.01 6.74-6.25 1.93-3.35 2.59-5.9 2.59-10 0-4.17-0.66-6.65-2.73-10.25-1.96-3.39-3.96-5.32-6.99-6.74-2.34-1.09-5.6-1.99-7.25-1.99-1.65-0.01-4.94 0.93-7.31 2.09zm193.31 0.3c-2.34 1.4-4.99 4.2-6.38 6.74-1.81 3.29-2.35 5.75-2.25 10.1 0.07 3.16 0.76 6.99 1.53 8.5 0.76 1.51 2.23 3.48 3.25 4.38 1.02 0.9 3.31 2.36 5.1 3.25 1.79 0.89 5.16 1.61 7.5 1.6 2.65-0.02 5.76-0.92 8.25-2.39 2.2-1.31 5-4.11 6.22-6.23 1.49-2.61 2.22-5.56 2.25-9.11 0.02-2.89-0.45-6.49-1.04-8-0.58-1.51-2.05-3.82-3.25-5.13-1.2-1.31-3.98-3.21-6.18-4.23-2.2-1.02-5.58-1.85-7.5-1.86-1.93-0.01-5.29 1.06-7.5 2.38zm59-0.81c-1.65 0.91-4.07 2.6-5.38 3.77-1.31 1.17-2.99 3.59-3.75 5.38-0.75 1.79-1.37 5.39-1.38 8 0 2.95 0.85 6.45 2.25 9.25 1.67 3.32 3.44 5.09 6.76 6.76 2.47 1.24 6.19 2.25 8.25 2.25 2.06-0.01 5.21-0.61 7-1.34 1.79-0.74 4.4-2.65 5.79-4.25 1.4-1.61 3.15-4.72 3.88-6.92 0.74-2.2 1.12-5.58 0.85-7.5-0.26-1.92-1.33-5.27-2.37-7.43-1.1-2.27-3.59-5.01-5.9-6.47-2.39-1.52-5.81-2.67-8.5-2.84-2.79-0.18-5.64 0.33-7.5 1.34zm-130.5 23.4v11c22.86 0.03 30.96-0.42 32.75-0.98 2.02-0.64 3.82-2.15 4.75-4.02 0.83-1.65 1.5-4.58 1.5-6.5 0-2.67-0.83-4.33-3.5-7l-3.5-3.5h-32zm-325 57v6c8.89 0 11.43-0.54 12.43-1.5 0.86-0.83 1.57-2.85 1.57-4.5q0-3-2.25-4.51c-1.24-0.83-4.39-1.5-7-1.5l-4.75 0.01zm103.48-4.8c-1.12 0.58-2.86 2.69-3.88 4.68-1.55 3.05-1.67 4.21-0.72 7.37 0.64 2.15 2.27 4.5 3.82 5.5 1.6 1.03 4.37 1.69 6.75 1.6 3.17-0.11 4.65-0.82 6.8-3.25 1.7-1.91 2.75-4.25 2.75-6.1 0-1.65-0.56-4.18-1.25-5.62-0.69-1.44-2.49-3.24-4-4-1.51-0.76-3.99-1.35-5.5-1.31-1.51 0.03-3.66 0.54-4.77 1.13zm66.57 4.75l-0.05 6.05c12.11-0.48 12.56-0.68 13.84-3.5 1.22-2.68 1.16-3.26-0.59-5.5-1.6-2.05-2.97-2.55-7.55-2.8l-5.6-0.3zm25.95 0.05v6c7.75 0 10.9-0.45 12-1 1.43-0.71 2-2 2-4.5 0-2.52-0.63-3.92-2.25-5.01-1.24-0.83-4.39-1.5-7-1.5l-4.75 0.01zm30.35-5.01c-1.18 0.48-2.87 1.91-3.75 3.19-0.89 1.28-1.61 3.78-1.61 5.57 0.01 1.79 0.69 4.6 1.51 6.25 1.02 2.04 2.7 3.36 5.25 4.12 2.55 0.77 4.71 0.82 6.75 0.15 1.65-0.53 3.9-2.2 5-3.69 1.22-1.66 2-4.3 2-6.74 0-3.25-0.61-4.55-3.25-6.92-2.24-2.01-4.26-2.9-6.5-2.86-1.79 0.04-4.22 0.46-5.4 0.93zm171.65 5.01v6c5.81 0.4 8.74 0.17 10.25-0.24 1.64-0.45 2.99-1.67 3.35-3.01 0.32-1.24 0.34-3.15 0.04-4.25-0.31-1.1-1.7-2.56-3.1-3.25-1.39-0.69-4.34-1.25-6.54-1.25h-4zm131 0v6c8.89 0 11.43-0.54 12.43-1.5 0.86-0.82 1.57-2.85 1.57-4.5q0-3-2.25-4.51c-1.24-0.83-4.39-1.5-7-1.5l-4.75 0.01z"/>
	</g>
</svg>