<svg version="1.2" xmlns="http://www.w3.org/2000/svg" viewBox="0 0 1731 957" width="1731" height="957">
	<style>
		.s0 { fill: #f6f6eb } 
		.s1 { fill: #0e7753 } 
		.s2 { fill: #0c213b } 
		.s3 { fill: #7c928b } 
	</style>
	<g id="Background">
		<path id="Path 0" class="s0" d="m-141 500v500h2000v-1000h-2000z"/>
		<path id="Path 1" fill-rule="evenodd" class="s1" d="m901.42 106.21c3.55 0.26 4.34 0.88 8.14 6.29 2.57 3.65 5.73 6.78 8.08 7.99 2.12 1.1 5.66 1.96 7.86 1.91 2.2-0.05 5.58-0.89 7.5-1.87 1.92-0.98 8-4.72 13.5-8.3 9.89-6.44 10.03-6.5 13-4.99 1.65 0.84 5.92 3.89 9.5 6.78 3.58 2.88 8.75 6.31 11.5 7.6 3.36 1.59 6.81 2.36 10.5 2.36 3.03 0 8.42-0.46 12-1.03 4.58-0.72 7.39-0.71 9.5 0.06 1.65 0.59 3.9 2 7 5.17l6-2.62c3.3-1.44 7.24-2.6 8.75-2.59 1.51 0.02 4.44 0.73 6.5 1.6 2.06 0.86 5.77 3.22 8.24 5.25 2.47 2.02 7.87 6.75 12 10.5 4.37 3.97 10.44 8.27 14.51 10.26 3.85 1.89 11.5 4.6 17 6.01 8.49 2.19 11.43 2.5 19.5 2.05 5.22-0.29 12.88-1.46 17-2.6 4.13-1.14 7.6-1.96 7.72-1.81 0.12 0.15-3.03 3-7 6.34-3.97 3.34-10.93 8.85-15.47 12.25-4.54 3.4-8.24 6.52-8.23 6.93 0.01 0.41 2.15 0.4 4.75-0.03 2.6-0.43 6.76-1.97 9.23-3.43 2.47-1.45 7.65-5.03 11.5-7.94 3.85-2.91 8.35-5.69 10-6.18 1.7-0.51 3.98-0.52 5.25-0.03 1.24 0.47 3.09 2.55 4.11 4.61 1.03 2.06 2.44 6.23 3.13 9.25 0.7 3.03 1.81 6.85 2.47 8.5 0.67 1.65 6.29 9.07 12.5 16.5 6.2 7.43 12.13 15.19 13.16 17.25 1.03 2.06 1.88 4.88 1.88 6.25 0 1.38-0.67 3.85-1.5 5.5-1.08 2.17-1.22 3.56-0.5 5 0.69 1.38 2.01 2 4.25 2.01 1.79 0 7.08-1.56 11.75-3.48 4.67-1.92 9.96-3.5 11.75-3.51 1.79-0.01 3.92 0.66 4.75 1.48 0.83 0.83 1.5 3.28 1.5 5.5 0 2.2-1.11 7.49-2.46 11.75-1.35 4.26-3.13 10.68-3.96 14.25-1 4.3-2.28 7.13-3.79 8.37-1.26 1.02-3.19 2.48-4.29 3.24-1.94 1.34-1.9 1.47 1.5 4.33 1.92 1.61 5.75 4.16 8.5 5.65 3.05 1.66 7.14 2.9 10.5 3.18 4.51 0.38 6.95-0.11 13.5-2.68 4.4-1.72 9.8-3.43 12-3.78 3.37-0.54 4.41-0.26 6.58 1.77 2.12 1.99 2.96 4.45 4.74 13.92 1.19 6.32 2.85 16.45 3.7 22.5 0.84 6.05 2.23 13.7 3.09 17 0.86 3.3 2.58 8.02 3.83 10.5 1.24 2.48 3.9 7.65 5.91 11.5 3.51 6.75 3.64 7.37 3.65 17.5 0 7.44-0.58 12.61-2 17.75-1.1 3.99-3.35 9.84-5 13-1.64 3.16-4.8 8.68-7.01 12.25-2.21 3.57-4 7.18-3.97 8 0.02 0.82-0.76 2.3-1.74 3.27-1.58 1.57-4.29 1.79-46.75 2.23l-0.76 5c-0.46 3.07-1.62 5.89-3.01 7.31-1.24 1.27-4.73 3.01-7.76 3.87-3.23 0.92-7.36 1.36-10 1.06-2.47-0.28-6.53-1.39-9-2.45-2.47-1.07-8.1-4.87-12.5-8.45-4.4-3.58-9.12-7.07-10.5-7.75-2.24-1.12-3.35-0.82-10.5 2.84-4.4 2.25-9.58 4.37-11.5 4.72-2.71 0.48-4.51 0.03-8-2-2.47-1.43-5.4-2.6-6.5-2.59-1.1 0-4.47 1.54-7.5 3.41-3.03 1.87-9.33 5.2-14 7.39-4.67 2.2-11.87 4.93-16 6.07-4.12 1.14-9.3 2.07-11.5 2.07-2.3-0.01-5.27-0.86-7-2-1.65-1.09-4.12-1.99-5.5-1.99-1.37 0-5.87-2.09-10-4.65-4.12-2.55-10.02-7.39-13.1-10.75-3.08-3.36-7.92-7.35-15.9-11.61l-5.5 4.7-10-2.43c-5.5-1.33-10.9-2.99-12-3.68-1.1-0.69-3.62-3.69-5.59-6.67-1.98-2.98-5.01-6.43-6.75-7.67-1.74-1.24-3.83-2.02-4.66-1.75-0.83 0.27-2.74 2.48-4.25 4.9-1.51 2.41-3.2 5.16-3.75 6.1-0.85 1.44-1.99 1.6-7.5 1.04-6.07-0.61-6.6-0.86-8-3.85-0.83-1.75-3.84-4.76-11.92-10.19l9.42-4.12 4.25 2.31c4.04 2.19 4.33 2.22 5.86 0.56 1.09-1.18 1.47-2.9 1.16-5.25-0.42-3.17 0.11-4.12 5.63-10.02 3.36-3.58 7.54-9.2 9.29-12.5 2.12-3.97 3.71-9.01 4.72-14.98 0.84-4.95 1.94-16.2 2.44-25 0.75-13.09 1.32-16.82 3.09-20.5 1.19-2.48 3.04-6.07 4.11-8 1.07-1.93 1.95-4.51 1.95-5.75 0-1.24-1.35-3.6-3-5.25-2.33-2.33-3.89-3-7-3-2.2 0-5.69 0.85-7.75 1.88-2.06 1.04-5.57 3.85-7.79 6.25-2.21 2.4-5.02 6.85-6.22 9.87-1.2 3.02-3.58 10.68-5.27 17-1.7 6.32-4.58 14.65-6.42 18.5-1.83 3.85-4.84 8.37-6.69 10.05-1.85 1.68-5.83 4-8.86 5.15-4.07 1.56-11.47 2.65-28.5 4.21-12.65 1.16-30.87 2.53-40.5 3.06-9.62 0.53-22.67 1.7-29 2.6-6.33 0.91-18.25 3.34-26.5 5.41-8.25 2.07-19.06 5.28-24.01 7.14-4.96 1.86-11.68 4.95-14.94 6.88-3.26 1.93-8.93 6.43-12.59 10-4.69 4.58-7.64 8.57-9.99 13.5-2.83 5.94-3.38 8.29-3.63 15.5-0.23 6.78-0.65 8.76-2.06 9.77-0.98 0.69-3.13 1.24-4.78 1.21-1.65-0.02-4.58-0.94-6.5-2.04-1.92-1.1-4-2.77-4.62-3.72-0.61-0.95-2.53-6.67-4.26-12.72-1.73-6.05-3.14-12.24-3.13-13.75 0-1.51 0.49-3.99 1.07-5.5 0.58-1.51 2.15-4.44 5.94-10.25l-4.75-7.49c-2.61-4.12-6.1-9.63-7.75-12.25-1.64-2.62-4.34-6.29-6-8.15-1.65-1.87-4.98-4.79-7.39-6.5-4.12-2.92-4.35-3.33-3.73-6.61 0.37-1.93 2.65-6.65 5.07-10.5 2.42-3.85 6.62-9.25 9.34-12 2.93-2.96 9.32-7.44 15.68-11 5.91-3.3 12.71-7.8 15.11-10 3.42-3.13 4.38-4.7 4.4-7.25 0.01-1.79-0.32-3.23-0.73-3.21-0.41 0.02-3.45 0.68-6.75 1.48-3.3 0.8-8.02 1.45-10.5 1.44-4.15 0-4.87-0.41-9.27-5.23-3.06-3.36-4.97-6.48-5.35-8.73-0.33-1.93-0.1-4.51 0.51-5.75 0.61-1.24 3.25-3.77 5.86-5.62 2.61-1.86 5.35-4.67 6.09-6.25 0.78-1.69 1.1-4.33 0.75-6.38-0.32-1.93-0.92-5.16-1.34-7.2-0.7-3.47-0.56-3.77 2.25-4.85 1.97-0.76 6.42-0.96 13-0.56 5.5 0.33 11.8 0.9 14 1.27 3.38 0.57 4.4 0.3 6.57-1.75 1.41-1.32 3.61-5.11 4.89-8.41 1.57-4.05 2.36-8.29 2.43-13.03 0.09-5.87-0.34-7.89-2.64-12.25-2.01-3.82-2.68-6.41-2.5-9.65 0.18-3.37 0.84-4.91 2.75-6.39 1.37-1.08 4.41-2.46 6.75-3.07 3.5-0.92 6.05-0.74 14.5 0.99 7.3 1.5 10.83 1.82 12.25 1.11 1.14-0.56 5.34-7.49 9.75-16.1 5.36-10.44 8.14-14.89 9-14.41 0.69 0.38 3.95 2.43 7.25 4.54 3.3 2.11 8.36 4.72 11.25 5.8 2.89 1.08 6.94 1.96 9 1.97 2.06 0 4.76-0.67 6-1.5q2.25-1.51 2.25-4.51c0-2.08-1.22-4.37-4-7.5-2.2-2.47-4.2-5.51-4.44-6.75-0.24-1.24-0.69-3.49-1-5-0.31-1.51-0.11-4.1 0.44-5.75 0.55-1.65 1.9-3.45 3-4 1.1-0.55 3.24-0.99 4.75-0.97 1.51 0.01 4.55-1.27 6.75-2.85 2.2-1.58 8.05-7.33 13-12.77 4.95-5.45 10.35-11.22 12-12.82 1.65-1.6 5.03-4.21 7.5-5.79 3.38-2.16 5.48-2.81 8.42-2.59zm-307.92 174.83c2.43 0.01 4.41 1.5 10.5 7.9 5.68 5.97 8.35 8.04 11 8.54 2.08 0.4 5.12 0.12 7.5-0.69 2.2-0.75 8.95-4.6 15-8.55 6.05-3.96 11.68-7.22 12.5-7.24 0.83-0.02 5.78 3.17 11 7.09 5.23 3.93 11.3 7.98 13.5 9 2.2 1.03 6.03 1.87 8.5 1.88 2.48 0.01 8.15-0.54 12.61-1.22 8.1-1.25 8.1-1.25 12.25 1.5 2.28 1.51 5.17 2.64 6.42 2.5 1.26-0.14 3.62 0.79 5.25 2.06 1.63 1.27 4.1 2.56 5.47 2.85 2.23 0.48 1.6 1.11-6 5.99-4.67 3-10.2 7.12-12.28 9.15-2.08 2.04-6.33 7.53-9.45 12.2-3.12 4.68-6.26 10.52-6.99 13-0.73 2.48-1.1 5.63-0.81 7 0.29 1.38 2.22 4.12 4.28 6.1 2.06 1.98 5.33 4.76 7.25 6.18 1.93 1.42 5.06 5.2 6.96 8.4 1.9 3.2 4.92 8.07 9.93 15.82l-2.32 4.5c-1.28 2.48-2.63 6.3-2.99 8.5-0.49 2.93 0.18 7.21 2.47 16 1.72 6.6 3.93 13.58 4.91 15.5 0.98 1.93 3.3 4.87 5.16 6.56 1.86 1.68 5.18 3.65 7.38 4.37 2.2 0.73 5.58 1.07 7.5 0.75 1.93-0.32 4.51-0.82 5.75-1.13 1.74-0.43 2.57 0.07 3.64 2.2 0.77 1.51 3.41 5.45 5.86 8.75 2.71 3.63 7.19 7.87 11.36 10.72 3.79 2.6 10.04 5.9 13.89 7.33 3.85 1.43 11.28 3.22 16.5 3.98 5.23 0.76 15.8 1.85 23.5 2.42 7.7 0.58 27.05 1.71 43 2.52 15.95 0.8 40.93 1.97 55.5 2.58 14.58 0.61 30.33 1.68 35 2.37 4.68 0.69 11.09 2.45 14.25 3.92 3.75 1.73 6.44 3.79 7.75 5.91 1.09 1.79 1.99 4.26 2 5.5 0 1.24-1.27 3.49-2.82 5-1.55 1.51-5.94 3.96-9.75 5.44-3.81 1.48-9.4 3.39-12.43 4.23-3.03 0.84-9.78 2.31-15 3.25-6.54 1.19-14.63 1.71-26 1.69-13.85-0.03-18.51-0.45-29-2.64-6.87-1.44-16.32-3.81-21-5.27-4.67-1.47-16.15-5.59-25.5-9.17-9.35-3.58-23.52-8.74-31.5-11.47-7.97-2.72-19.22-6.26-25-7.86-5.77-1.6-15.9-4.02-22.5-5.38-6.6-1.36-18.75-3.21-27-4.12-8.25-0.91-21.07-1.66-28.5-1.68-7.42-0.02-18.9 0.72-25.5 1.64-6.6 0.92-16.5 2.74-22 4.06-5.5 1.31-13.6 3.71-18 5.33-4.4 1.62-12.72 5.3-18.5 8.17-5.77 2.87-14.32 7.71-19 10.75-4.67 3.04-12.1 8.35-16.5 11.78-4.4 3.44-10.52 8.89-13.6 12.13-3.08 3.23-7.65 9.02-10.16 12.87-2.51 3.85-6.06 10.6-7.88 15-3.27 7.88-3.32 8.24-3.34 23.5-0.02 14.51 0.16 15.96 2.73 22.75 1.51 3.99 2.3 7.25 1.75 7.25-0.55 0-2.69-0.84-4.75-1.86-2.06-1.02-4.04-2.48-4.39-3.25-0.35-0.76-0.41-2.51-0.13-3.89 0.28-1.37 0.23-3.74-0.11-5.25-0.46-2.04-1.78-3.26-5.12-4.75-2.47-1.1-6.51-2.11-8.97-2.25-2.88-0.16-5.04 0.28-6.08 1.25-1.01 0.94-1.4 2.34-1.03 3.75 0.32 1.24 3.39 4.93 6.83 8.2 3.44 3.27 8.05 7.25 10.25 8.84 2.2 1.58 5.35 3.59 7 4.46 1.65 0.86 5.25 2.14 8 2.84 3.07 0.78 5.77 2.24 7 3.78 1.1 1.38 3.24 4.22 7.5 10.13l-5.25 2.42c-2.89 1.34-7.72 4.04-10.75 6.01-3.02 1.97-6.51 3.58-7.75 3.58-1.3-0.01-4.9-2.35-8.5-5.52-3.44-3.03-7.37-5.75-8.75-6.05-1.77-0.37-3.74 0.36-6.75 2.52-2.8 2-5.45 3.04-7.75 3.04-1.92 0-5.19-0.87-7.25-1.93-2.06-1.06-4.99-3.53-6.5-5.5-1.51-1.96-4.55-4.47-6.75-5.57-2.2-1.1-4.02-2.34-4.04-2.75-0.02-0.41 1.78-1.99 4-3.5 2.36-1.61 4.25-3.79 4.54-5.25 0.28-1.37-0.06-3.17-0.75-3.98-0.96-1.14-4.26-1.54-14.25-1.75-12.14-0.25-13.33-0.46-18-3.08-2.75-1.55-6.8-3.07-9-3.4-3.1-0.45-4.98-0.04-8.36 1.81-2.39 1.32-4.98 3.64-5.75 5.15-0.76 1.51-2.85 3.49-4.64 4.4-3.02 1.54-3.57 1.54-7.75 0-2.47-0.9-5.75-2.66-7.28-3.9-2.18-1.75-3.46-4.57-5.84-12.75-2.37-8.17-2.98-11.98-2.71-17.19 0.29-5.97 0.68-7.05 3.56-10 1.78-1.82 3.25-3.76 3.26-4.31 0.01-0.55-1.24-2.58-2.78-4.5-1.54-1.92-5.03-7.09-7.76-11.47-2.72-4.38-6.75-9.65-8.95-11.71-2.2-2.06-5.52-5-7.38-6.53-3.05-2.52-3.32-3.15-2.75-6.54 0.36-2.12 3.18-7.55 6.49-12.5 3.23-4.81 7.88-10.55 10.33-12.75 2.46-2.2 7.58-5.53 11.39-7.39 3.81-1.87 9.62-5.29 12.92-7.6 3.3-2.31 6.79-5.4 7.75-6.86 0.96-1.46 1.75-3.55 1.75-4.65 0-1.57-0.49-1.88-2.25-1.46-1.24 0.3-5.17 1.19-8.75 1.98-3.57 0.8-7.29 1.45-8.25 1.46-0.96 0.01-3.18-1.22-4.93-2.73-1.75-1.51-4.46-4.55-6.03-6.75-1.76-2.47-2.84-5.25-2.82-7.25 0.02-2.09 1.01-4.36 2.78-6.37 1.51-1.71 4.1-3.91 5.75-4.88 1.65-0.98 3.6-3.06 4.34-4.64 0.73-1.57 1.11-4.21 0.84-5.86-0.27-1.65-0.82-4.8-1.22-7-0.6-3.3-0.4-4.22 1.16-5.27 1.16-0.78 5.12-1.25 10.38-1.23 4.68 0.02 11.41 0.46 14.96 0.98 4.88 0.71 6.97 0.62 8.5-0.35 1.12-0.7 3.31-4.39 4.87-8.2 1.55-3.81 3.09-9.63 3.42-12.93 0.55-5.48 0.28-6.67-3.07-13.75-3.04-6.41-3.54-8.31-2.87-11 0.52-2.06 2.07-4.08 4.25-5.53 1.89-1.25 5.02-2.57 6.94-2.92 1.98-0.36 6.97 0.09 11.5 1.02 4.4 0.91 9.35 1.67 11 1.7 1.66 0.02 3.72-0.75 4.61-1.74 0.88-0.98 4.93-7.95 16.39-29.19l6.5 3.97c3.58 2.18 8.75 4.81 11.5 5.85 2.75 1.03 6.35 1.98 8 2.09 1.65 0.12 3.98 0.16 5.18 0.11 1.2-0.06 2.88-0.78 3.75-1.61 0.86-0.82 1.57-2.62 1.57-4 0-1.37-1.29-3.96-2.86-5.75-1.58-1.79-3.6-4.71-4.5-6.5-0.9-1.79-1.66-5.16-1.67-7.5-0.03-2.58 0.69-5.29 1.82-6.88 1.39-1.98 3.02-2.79 6.53-3.25 3.5-0.46 5.72-1.57 8.81-4.37 2.27-2.06 8.68-8.87 14.25-15.12 6.36-7.14 11.98-12.43 15.12-14.24 2.75-1.58 6.35-2.86 8-2.85zm334.75 125.1c2-0.1 2.75 0.34 2.76 1.61 0.01 0.96 0.34 3.45 1.49 9.29h-4.5c-4.28 0-4.53-0.16-5.16-3.27-0.37-1.8-0.93-4.06-1.25-5.02-0.43-1.27 0.03-1.85 1.66-2.11 1.24-0.2 3.49-0.43 5-0.5zm-24 3c4.15-0.12 4.98 0.21 6.59 2.61 1.01 1.51 2.13 3.31 2.5 4 0.52 0.99-6.55 1.25-33.84 1.25-22.33 0-34.5-0.35-34.5-1 0-0.55 0.68-0.77 1.5-0.5 0.83 0.28 1.61 0.07 1.75-0.46 0.14-0.53 7-1.66 15.25-2.51 8.25-0.86 19.72-1.94 25.5-2.4 5.78-0.47 12.64-0.91 15.25-0.99zm-17.25 16.29c12.38 0 17.33 0.14 11 0.32-6.32 0.17-16.45 0.17-22.5 0-6.05-0.18-0.87-0.32 11.5-0.32zm-194.5 135.92c4.95 0 7.2 0.17 5 0.38-2.2 0.21-6.25 0.21-9 0.01-2.75-0.21-0.95-0.38 4-0.39zm-9.75 8.78c0.69-0.07 1.25 0.77 1.25 1.87 0 1.1 0.56 3.16 1.25 4.57 1.04 2.14 1 2.71-0.25 3.43-0.82 0.48-3.3 1.13-5.5 1.44-2.8 0.4-4.53 0.12-5.75-0.93-1.58-1.36-2.12-1.26-5.5 0.99-3.14 2.1-4.92 2.51-11 2.5-3.99 0-7.92-0.22-8.75-0.5-0.82-0.27-1.5-1.17-1.5-2 0-0.84 2.31-2.55 5.25-3.89 2.89-1.31 7.73-3.12 10.75-4.02 3.03-0.89 8.43-2.01 12-2.48 3.58-0.47 7.06-0.91 7.75-0.98zm22 0.2c2.06 0.36 4.76 0.65 6 0.66 1.24 0.01 2.03 0.46 1.75 1.01-0.27 0.55-1.17 0.78-2 0.5-0.82-0.27-1.61-0.04-1.75 0.51-0.14 0.56-1.71 1.24-3.5 1.5-1.82 0.28-3.25 0.05-3.25-0.51 0-0.55-0.22-1.75-0.5-2.66-0.42-1.41 0.06-1.56 3.25-1.01zm184.25 39.67c1.1 0 5.16 0.56 9.02 1.25 4.99 0.89 7.02 1.68 7.03 2.75 0.01 0.83-0.9 2.74-2.02 4.25-1.11 1.51-3.72 3.61-5.78 4.65-2.06 1.05-5.55 2.25-7.75 2.68-3.9 0.76-3.98 0.72-3.26-1.65 0.4-1.34 0.74-5.02 0.75-8.18 0.01-5.08 0.24-5.75 2.01-5.75zm26 257.41c9.08 0 12.9 0.15 8.5 0.33-4.4 0.19-11.82 0.19-16.5 0-4.67-0.18-1.07-0.33 8-0.33zm-138.31 54.59c0.41 0 1.21 0.79 1.78 1.75 0.94 1.59 0.87 1.61-0.76 0.25-1.7-1.42-1.81-1.12-2.09 12.5l-0.44-5.89c-0.24-3.24-0.17-6.5 0.17-7.25 0.33-0.75 0.93-1.36 1.34-1.36zm-103.95 45.5c0.2 3.3 0.2 8.92 0 12.5-0.19 3.58-0.35 0.88-0.35-6 0-6.87 0.16-9.8 0.35-6.5zm349.99-2c0.21 2.2 0.21 5.58 0 7.5-0.22 1.92-0.39 0.13-0.39-4 0-4.12 0.17-5.7 0.39-3.5zm-115.99 3.5c0.2 3.02 0.2 8.2 0 11.5-0.2 3.3-0.36 0.83-0.36-5.5 0-6.33 0.16-9.02 0.36-6zm2 0c0.2 3.02 0.2 8.2 0 11.5-0.2 3.3-0.36 0.83-0.36-5.5 0-6.33 0.16-9.02 0.36-6zm-158.01 2c0.21 2.48 0.21 6.98 0.01 10-0.2 3.02-0.37 1-0.37-4.5-0.01-5.5 0.16-7.98 0.36-5.5z"/>
		<path id="Path 2" class="s2" d="m980.02 300.33c-1.91 0.68-4.47 2.58-5.68 4.21-1.22 1.63-3.16 5.21-4.33 7.96-1.16 2.75-3.26 9.27-4.66 14.5-1.41 5.23-3.93 12.88-5.61 17-1.68 4.13-4.49 9.52-6.25 12-1.76 2.48-5.41 5.98-8.1 7.79-2.69 1.81-7.14 3.96-9.89 4.77-2.75 0.81-10.17 1.93-16.5 2.48-6.33 0.55-15.55 1.46-20.5 2.03-4.95 0.56-18 1.44-29 1.94-11 0.51-24.73 1.64-30.5 2.5-5.77 0.87-16.12 2.92-23 4.57-6.87 1.65-16.1 4.18-20.5 5.61-4.4 1.44-11.6 4.41-16 6.61-5.5 2.74-9.88 5.9-14.01 10.09-3.3 3.36-7.34 8.59-8.97 11.61-2.53 4.69-2.96 6.6-2.97 13 0 6.3 0.49 8.54 3.07 14 1.85 3.92 5.31 8.79 8.72 12.25 3.84 3.9 8 6.85 12.91 9.15 3.99 1.87 10.4 4.11 14.25 4.96 3.85 0.86 19.38 2.46 34.5 3.57 15.13 1.11 36.27 2.47 47 3.03 10.72 0.56 31.88 1.49 47 2.07 15.13 0.58 30.42 1.5 34 2.06 3.58 0.55 8.75 1.68 11.5 2.49 2.75 0.82 7.03 2.81 9.5 4.43 2.47 1.61 5.63 4.61 7 6.65 1.61 2.39 2.63 5.54 2.88 8.78 0.23 3.18-0.18 6.18-1.12 8.06-0.82 1.65-3.69 4.45-6.37 6.23-2.69 1.77-9.17 4.77-14.39 6.66-5.22 1.88-14.22 4.4-20 5.58-6.3 1.29-16.3 2.37-25 2.71-8.69 0.34-18.31 0.1-24-0.6-5.22-0.65-12.65-1.82-16.5-2.6-3.85-0.79-12.85-3.29-20-5.55-7.15-2.27-21.77-7.51-32.5-11.64-10.73-4.14-24.23-9.07-30-10.97-5.77-1.9-16.35-4.98-23.5-6.84-7.15-1.87-18.4-4.3-25-5.4-6.6-1.1-16.73-2.47-22.5-3.05-5.77-0.57-15.56-1.04-21.75-1.04-6.19 0.01-15.64 0.49-21 1.07-5.36 0.59-14.25 1.98-19.75 3.1-5.5 1.12-14.05 3.38-19 5.04-4.95 1.65-13.27 5.01-18.5 7.46-5.23 2.44-12.87 6.53-17 9.07-4.12 2.55-11.55 7.65-16.5 11.35-4.95 3.69-11.92 9.8-15.5 13.58-3.58 3.77-8.28 9.56-10.46 12.85-2.18 3.29-5.21 9.59-6.73 13.99-1.52 4.4-3.06 11.38-3.42 15.5-0.47 5.34-0.17 9.95 1.04 16 0.93 4.67 3.23 11.65 5.12 15.5 1.88 3.85 6.46 10.8 10.18 15.44 3.73 4.64 10.28 11.61 14.57 15.5 4.29 3.88 10.36 8.76 13.5 10.83 3.13 2.07 8.18 4.69 11.2 5.82 3.02 1.13 8.65 2.76 12.5 3.63 4.8 1.08 12.34 1.6 24 1.64 11.61 0.04 20.65-0.51 28.5-1.73 6.33-0.98 17.35-3.11 24.5-4.73 7.15-1.62 16.15-3.78 20-4.8 3.85-1.02 12.63-3.1 19.5-4.62 6.88-1.51 13.29-2.47 14.25-2.12 0.96 0.35 2.03 1.43 2.37 2.39 0.34 0.96 0.37 2.65 0.06 3.75-0.31 1.1-4.24 7.63-8.72 14.5-4.48 6.88-9.68 15.54-11.55 19.25-1.88 3.71-4.71 10.01-6.3 14-1.59 3.99-5.26 14.23-8.16 22.75-5.04 14.81-5.28 15.97-5.29 26-0.02 8.38 0.41 11.61 2.13 16 1.17 3.02 3.62 7.75 5.42 10.5 1.81 2.75 6.48 8.38 10.4 12.5 3.91 4.13 10.89 10.04 15.5 13.15 4.62 3.1 12.22 7.42 16.89 9.6 4.67 2.17 11.77 5.03 15.76 6.35 4 1.32 7.26 2.74 7.25 3.15 0 0.41-44.78 0.75-99.51 0.75-86.22 0-99.97 0.2-103 1.5-1.92 0.83-4.43 2.96-5.56 4.75-1.59 2.52-1.95 4.38-1.6 8.25 0.38 4.19 1.04 5.53 4.06 8.25l3.6 3.25c520.28 0 553.36-0.18 556-1.5 1.65-0.83 3.52-2.51 4.15-3.75 0.64-1.24 1.5-3.37 1.93-4.75 0.42-1.37 0.37-4.08-0.12-6-0.49-1.92-2.28-4.85-3.99-6.5l-3.1-3c-154.06-0.41-185.87-0.84-185.87-1.5 0-0.55 0.45-1 1-1 0.55 0 4.49-2.77 8.75-6.16 4.26-3.39 13.39-11.83 20.29-18.75 7.73-7.75 14.85-16.05 18.55-21.59 3.3-4.95 7.41-12.37 9.12-16.5 1.72-4.12 4.35-11.77 5.84-17 1.49-5.23 3.78-12.54 5.08-16.25 1.47-4.19 3.22-7.27 4.62-8.13 1.57-0.97 7.51-1.56 19.75-1.97 11.62-0.4 19.35-1.14 23-2.22 3.03-0.89 7.97-3.03 11-4.76 3.03-1.73 7.53-4.75 10-6.71 3.12-2.47 5.08-5.09 6.39-8.51 1.66-4.36 1.75-5.73 0.75-11.45-0.74-4.22-1.93-7.32-3.39-8.85-1.24-1.29-4.05-3.26-6.25-4.39-2.2-1.12-8.87-5.01-14.82-8.65-5.95-3.63-12.48-7.62-14.5-8.84-2.02-1.23-5.03-2.23-6.68-2.23-1.65 0-5.25 1.14-8 2.52l-5 2.51c-23.25-1.81-34.28-2.09-39.5-1.8-5.28 0.3-11.72 1.33-14.5 2.33-2.96 1.07-6.9 3.66-9.65 6.35-3.44 3.36-5.08 5.99-6.26 10.05-0.89 3.02-1.61 7.19-1.6 9.25 0.01 2.06 0.95 7.91 2.1 13 1.47 6.5 1.94 11.18 1.58 15.75-0.28 3.58-1.56 9.31-2.84 12.74-1.28 3.44-4.58 9.27-7.33 12.96-2.75 3.7-7.47 8.67-10.5 11.06-3.03 2.39-9.1 6.07-13.5 8.18-4.4 2.12-11.37 4.77-15.5 5.91-4.12 1.13-11.55 2.73-16.5 3.56-4.95 0.82-14.62 2.03-21.5 2.68-7.53 0.71-18.07 0.92-26.5 0.53-7.7-0.36-17.37-1.26-21.5-2-4.12-0.74-9.75-2.48-12.5-3.86-2.75-1.38-6.51-3.8-8.35-5.38-1.84-1.59-4.5-5.36-5.92-8.38-2.37-5.05-2.54-6.28-2.05-15 0.39-7.17 1.21-11.21 3.31-16.5 1.54-3.85 4.27-9.25 6.08-12 1.8-2.75 6.24-8.49 9.85-12.75 3.62-4.26 10.52-10.76 15.33-14.45 4.81-3.68 12.13-10.1 16.25-14.26 4.26-4.29 8.86-10.16 10.65-13.55 1.73-3.3 3.94-8.91 4.91-12.49 1.41-5.17 1.65-8.75 1.19-17.5-0.36-6.87-1.27-12.88-2.41-16-1.01-2.75-3.4-7.92-5.31-11.5-2.05-3.86-6.52-9.59-11-14.1-6.27-6.33-9.29-8.46-18.03-12.75-8.15-4-12.63-5.51-20-6.76-6.56-1.12-12.28-1.43-18.5-1.01-4.95 0.33-12.37 1.45-16.5 2.5-4.12 1.04-13.12 4.17-20 6.94-6.87 2.77-18.58 7.56-26 10.64-7.42 3.07-17.33 6.92-22 8.54-4.67 1.63-14.8 4.71-22.5 6.86-7.7 2.14-17.37 4.46-21.5 5.15-4.12 0.69-11.55 1.28-16.5 1.32-7.38 0.05-9.76-0.34-13.25-2.14-2.42-1.24-4.53-3.16-4.9-4.44-0.35-1.24-0.58-3.49-0.5-5 0.08-1.51 0.94-3.93 1.9-5.37 0.97-1.44 4.88-4.09 8.75-5.92 3.85-1.82 11.73-4.32 17.5-5.56 7.8-1.68 13.97-2.28 24-2.33 8.16-0.04 18.64 0.66 26.5 1.78l13 1.85c22.48-9.6 33.95-14.15 40-16.29 6.05-2.14 14.49-4.57 18.75-5.4 4.26-0.83 12.48-1.51 18.25-1.51 5.78 0 13.99 0.71 18.25 1.58 4.26 0.87 10.45 2.67 13.75 4 3.3 1.34 8.48 3.89 11.5 5.68 3.03 1.78 9.13 6.84 13.57 11.24 4.44 4.4 9.6 10.7 11.46 14 1.86 3.3 4.78 9.6 6.49 14l3.11 8c9.8 2.28 18.69 2.81 31.37 2.88 15.39 0.1 21.4-0.27 28.5-1.73 4.95-1.01 12.15-2.73 16-3.81 3.85-1.08 11.95-3.79 18-6.02 6.05-2.23 16.85-7.02 24-10.64 7.15-3.63 18.4-10.2 25-14.62 8.34-5.57 15.36-11.37 23.01-19.04 6.06-6.06 12.43-13.5 14.16-16.52 1.74-3.02 4.19-8.87 5.46-13 1.63-5.3 2.29-9.84 2.24-15.5-0.04-5.25-0.83-10.57-2.3-15.5-1.24-4.12-3.9-10.61-5.91-14.42-2.13-4.02-6.39-9.67-10.17-13.5-3.92-3.96-10.1-8.67-15.5-11.83-4.95-2.89-13.71-7.12-19.49-9.38-5.78-2.27-15.45-5.37-21.5-6.9-6.05-1.52-15.28-3.46-20.5-4.31-5.22-0.85-13.78-1.69-19-1.86-5.22-0.16-26.6 0.05-47.5 0.48-20.9 0.43-46.55 0.41-57-0.04-15.18-0.65-19.55-1.16-21.75-2.53-1.51-0.94-3.02-2.72-3.34-3.96-0.38-1.44 0.12-3.15 1.36-4.75 1.07-1.37 3.93-3.5 6.34-4.71 2.41-1.22 8.44-2.89 13.39-3.72 4.95-0.83 18.45-2.19 30-3.04 11.55-0.85 27.08-2.25 34.5-3.12 7.42-0.87 17.1-2.72 21.5-4.1 4.4-1.38 10.67-3.93 13.93-5.66 3.26-1.73 8.55-5.74 11.75-8.9 3.2-3.16 6.72-7.55 7.82-9.75 1.1-2.2 2.66-6.81 3.47-10.25 0.81-3.44 1.94-13.9 2.51-23.25 0.57-9.35 1.49-19.14 2.03-21.75 0.55-2.61 1.89-6.44 2.99-8.5 1.1-2.06 2.62-4.76 3.37-6q1.38-2.25 0.25-2.21c-0.62 0.02-2.68 0.6-4.6 1.29zm-131.52 567.97c-2.2 0.71-5.58 2.25-7.5 3.43-1.92 1.18-4.94 3.63-6.7 5.45-1.76 1.83-4.21 5.57-5.46 8.32-1.75 3.89-2.26 6.88-2.3 13.5-0.03 7.5 0.31 9.2 2.96 14.45q3 5.96 7.67 9.5c2.56 1.95 7.06 4.42 10 5.49 3.37 1.23 7.72 1.92 11.83 1.87 3.58-0.04 8.98-0.77 12-1.63 3.03-0.85 6.74-2.48 8.25-3.62 2.73-2.05 2.75-2.14 2.75-14.06v-12h-7l-0.5 21.39c-6.25 3.67-8.71 4.11-15 4.09-6.16-0.01-8.92-0.5-12-2.11-2.2-1.15-5.8-4.11-8-6.57-2.2-2.45-4.56-6.23-5.23-8.38-0.68-2.16-1.23-6.4-1.23-9.42 0-3.18 0.77-7.19 1.83-9.5 1-2.2 3.13-5.54 4.73-7.42 1.59-1.88 5.15-4.47 7.9-5.74 3.38-1.57 6.86-2.32 10.75-2.33 3.4-0.01 7.89 0.82 11 2.02 2.89 1.11 6.05 2.8 7.04 3.75 1.69 1.63 1.9 1.61 4-0.48 1.98-1.96 2.05-2.36 0.71-3.83-0.83-0.9-3.75-2.75-6.5-4.1-3.74-1.85-7.13-2.58-13.5-2.92-5.42-0.28-9.95 0.02-12.5 0.85zm-262.5 30.7v31c28.52 0.04 32.73-0.33 38-1.91 4.57-1.37 7.99-3.26 11.5-6.35 3.15-2.77 5.83-6.32 7.25-9.57 1.24-2.84 2.53-7.31 2.88-9.92 0.36-2.77 0.06-7.25-0.73-10.75-0.75-3.3-2.51-7.8-3.92-10-1.41-2.2-4.12-5.22-6.02-6.72-1.9-1.5-5.82-3.63-8.71-4.75-4.56-1.76-7.56-2.03-22.75-2.03h-17.5zm313 0v31c38.69-0.51 40.86-0.72 44.5-2.66 2.2-1.17 4.9-3.12 6-4.34 1.46-1.62 2.1-4 2.38-8.86 0.37-6.35 0.24-6.81-3-10.53-1.86-2.13-4.5-4.28-5.88-4.77l-2.5-0.89c5.65-5 7.63-7.8 8.03-9.45 0.41-1.65 0.48-5.03 0.15-7.5-0.43-3.29-1.48-5.39-3.88-7.78-1.82-1.81-4.88-3.72-6.8-4.25-1.92-0.53-11.49-0.96-21.25-0.96l-17.75-0.01zm228-21.5v5.5c-8.63 0-9 0.2-9 2.5 0 2.3 0.37 2.5 4.5 2.5h4.5l0.5 34.97c4.65 4.72 7.79 6.5 10 7.02 2.51 0.58 5.3 0.58 7.5-0.03 1.92-0.53 4.11-1.3 4.85-1.71 1.04-0.58 1.1-1.26 0.25-3-0.9-1.83-1.47-2.07-3.1-1.25-1.1 0.55-3.46 1.01-5.25 1.03-2.22 0.01-4.04-0.81-5.75-2.58-2.45-2.55-2.5-2.92-2.5-18.28v-15.67c14.25-0.49 14.5-0.59 14.5-3 0-2.41-0.25-2.51-7.25-2.75l-7.25-0.25c-0.39-10.39-0.45-10.5-3.45-10.5-3.03 0-3.05 0.03-3.05 5.5zm-455.5 5.56c-2.2 0.5-5.8 2.41-8 4.24-2.2 1.83-5.01 5.33-6.24 7.77-1.63 3.24-2.23 6.18-2.22 10.93 0 4.36 0.65 7.9 1.98 10.75 1.09 2.34 3.22 5.43 4.73 6.87 1.51 1.45 4.78 3.51 7.25 4.58 2.67 1.16 6.94 1.99 10.5 2.04 4.08 0.06 7.44-0.57 10.5-1.96 2.48-1.13 5.4-2.74 6.5-3.58 1.91-1.45 1.92-1.61 0.25-3.61l-1.75-2.09c-6.66 4.98-8.6 5.56-13.93 5.8-4.85 0.23-7.47-0.17-10-1.5-1.88-0.99-4.69-3.38-6.22-5.3-1.54-1.93-3.15-4.97-3.57-6.77l-0.78-3.28 40.5 0.05c0-3.88-0.46-6.91-1.03-9.25-0.56-2.34-2.47-6-4.25-8.14-1.77-2.15-4.8-4.68-6.72-5.63-1.92-0.96-5.75-1.99-8.5-2.28-2.75-0.3-6.8-0.14-9 0.36zm55.5-0.04c-1.92 0.51-5.19 2.06-7.25 3.45-2.06 1.39-4.99 4.41-6.5 6.71-2.12 3.23-2.84 5.68-3.13 10.75-0.22 3.79 0.18 8.26 0.94 10.57 0.72 2.2 2.92 5.76 4.88 7.91 1.96 2.14 5.36 4.72 7.56 5.72 2.55 1.17 6.35 1.83 10.5 1.83 3.58 0 8.08-0.46 10-1.03 1.92-0.57 4.85-2.1 6.5-3.39l3-2.34c-3.72-3.92-4.21-4.02-5.5-2.83-0.83 0.76-2.96 2.12-4.75 3.01-1.79 0.89-5.39 1.61-8 1.6-2.61-0.01-6.55-0.85-8.75-1.86-2.2-1.01-4.76-2.69-5.69-3.73-0.93-1.04-2.39-3.58-3.25-5.64-0.86-2.06-1.33-4.2-1.06-4.75 0.31-0.62 8-1 20-1h19.5c0-6.2-0.7-9.69-1.55-11.75-0.86-2.06-2.77-5.03-4.25-6.59-1.49-1.56-4.28-3.66-6.2-4.67-1.92-1-5.75-2.06-8.5-2.35-2.75-0.29-6.58-0.12-8.5 0.38zm61.5-0.08c-1.65 0.4-4.46 1.48-6.25 2.39-1.79 0.92-3.81 2.57-4.5 3.67-0.69 1.11-1.59 2.01-2 2-0.41 0-0.75-1.8-0.75-4 0-3.78-0.17-4-3-4h-3v64h6c0-18.6 0.34-24.22 0.75-24.48 0.41-0.27 1.65 0.47 2.75 1.64 1.1 1.17 3.8 2.95 6 3.96 2.38 1.09 6.33 1.84 9.75 1.86 3.88 0.01 7.13-0.67 10-2.09 2.34-1.16 5.28-3.08 6.54-4.25 1.26-1.18 3.18-4.5 4.25-7.39 1.08-2.89 1.96-6.94 1.97-9 0.01-2.06-0.67-6.11-1.5-9-1.02-3.55-2.81-6.55-5.51-9.25-2.7-2.7-5.7-4.49-9.25-5.51-2.89-0.83-6.15-1.46-7.25-1.4-1.1 0.06-3.35 0.44-5 0.85zm190.5 0.08c-1.92 0.5-5.19 2.06-7.25 3.45-2.06 1.39-4.99 4.41-6.5 6.71-2.27 3.45-2.81 5.5-3.07 11.75-0.2 4.47 0.18 8.8 0.91 10.57 0.67 1.65 2.22 4.35 3.42 6 1.21 1.65 4.62 4.3 7.59 5.9 4.28 2.3 6.64 2.89 11.4 2.86 3.68-0.02 7.74-0.79 10.5-1.99 2.47-1.07 6.1-3.71 8.06-5.86 1.96-2.15 4.16-5.71 4.88-7.91 0.74-2.25 1.15-6.67 0.94-10.11-0.31-4.97-1.03-7.05-3.88-11.23q-3.5-5.13-8.5-7.78c-2.98-1.59-7.02-2.79-10-2.98-2.75-0.17-6.58 0.11-8.5 0.62zm56.95 0.3c-2.5 0.65-6.21 2.42-8.25 3.93-2.03 1.51-4.82 5-6.2 7.75-1.85 3.7-2.51 6.62-2.52 11.25-0.02 3.44 0.62 7.82 1.4 9.75 0.79 1.92 2.49 4.82 3.78 6.43 1.29 1.61 4.59 3.97 7.34 5.24 3.57 1.65 6.86 2.32 11.5 2.33 4.89 0.02 7.74-0.58 11.5-2.42 2.92-1.42 6.14-4.03 7.73-6.26 1.51-2.1 3.19-5.4 3.75-7.32 0.56-1.93 1.02-5.75 1.01-8.5-0.01-3.24-0.89-6.85-2.5-10.25-1.64-3.45-3.94-6.28-6.74-8.26-2.34-1.66-6.39-3.46-9-4-2.61-0.55-5.54-0.96-6.5-0.92-0.96 0.03-3.8 0.6-6.3 1.25zm53.05-0.16c-2.47 0.49-5.85 1.74-7.5 2.77-1.65 1.03-3.56 3.05-4.25 4.47-0.69 1.43-1.27 4.06-1.28 5.85-0.02 1.92 0.9 4.44 2.25 6.14 1.25 1.59 3.07 3.28 4.03 3.75 0.96 0.47 5.91 1.77 11 2.89 6.21 1.37 10 2.76 11.53 4.25 1.25 1.22 2.26 3.23 2.25 4.47-0.02 1.24-0.93 3.15-2.03 4.25-1.1 1.1-3.24 2.29-4.75 2.63-1.51 0.35-5.45 0.45-8.75 0.23-3.55-0.25-7.73-1.32-10.25-2.64-4.22-2.2-4.26-2.21-5.25-0.22-0.55 1.1-1 2.45-1 3 0 0.55 2.47 1.9 5.5 3 3.76 1.37 7.95 1.99 13.25 1.98 5.24-0.02 9.05-0.6 11.75-1.81 2.2-0.98 4.79-2.88 5.76-4.23 1.04-1.44 1.77-4.28 1.79-6.94 0.02-3.62-0.52-5.04-2.76-7.26-1.84-1.82-5.01-3.31-9.29-4.36-3.58-0.88-8.86-2.22-11.75-2.99-3.59-0.95-5.6-2.1-6.36-3.64-0.61-1.24-0.88-3.38-0.59-4.75 0.34-1.6 1.83-3.13 4.12-4.25 2.05-1 5.82-1.74 8.83-1.73 2.98 0.01 6.98 0.83 9.25 1.89 3.91 1.81 4.03 1.81 5.25-0.03 0.69-1.03 1.25-2.33 1.25-2.88 0-0.55-1.91-1.64-4.25-2.43-2.34-0.78-6.28-1.62-8.75-1.86-2.47-0.24-6.53-0.04-9 0.45zm-507.04 82.48c-0.16 2.67-0.43 8.35-0.62 12.61-0.28 6.37-0.07 7.75 1.16 7.75 1.08 0 1.5-1.11 1.5-4v-4c11.52-0.67 12.85-1.14 14.75-3.36 1.24-1.45 2.25-3.77 2.25-5.14 0-1.38-1.09-3.74-2.42-5.25-2.12-2.41-3.27-2.79-9.38-3.11l-6.96-0.37zm25.22 0.98c1.74 3.24 3.76 6.79 4.5 7.89 0.73 1.1 1.33 4.13 1.33 6.75-0.01 3.56 0.37 4.75 1.49 4.75 1.11 0 1.5-1.17 1.5-4.5 0-3.65 0.9-5.92 4.75-12.01 2.61-4.13 4.41-7.73 4-8-0.41-0.27-2.77 2.66-5.25 6.51-2.47 3.85-4.84 6.73-5.25 6.41-0.41-0.33-2.32-3.33-4.25-6.67-1.92-3.34-4.06-6.28-4.74-6.54-0.69-0.26 0.17 2.18 1.92 5.41zm44.82 6.89c0 7.66 0.39 12.5 1 12.5 0.56 0 1-2.67 1-6v-6l16.5 0.5c0 8.9 0.34 11.49 0.75 11.49 0.41 0 0.67-5.73 0.56-12.74-0.1-7.02-0.33-10.17-0.5-7l-0.31 5.75h-17c0-8.53-0.45-11-1-11-0.61 0-1 4.83-1 12.5zm32.93-10.21c-1.89 1.26-4.01 3.4-4.72 4.75-0.76 1.44-1.1 4.33-0.84 6.96 0.37 3.58 1.19 5.16 4.05 7.75 3.03 2.75 4.34 3.25 8.58 3.25 4.24 0 5.54-0.49 8.56-3.25 2.58-2.35 3.72-4.36 4.13-7.25q0.56-4-1.07-7.25c-0.89-1.79-3.08-4.15-4.87-5.25-1.79-1.1-4.86-2-6.82-2-2.06 0-5.02 0.97-7 2.29zm26.07 10.21c0 9.51 0.3 12.42 1.25 12.17 0.84-0.23 1.41-3.45 1.75-9.94l0.5-9.61c12.4 15.46 16.34 19.93 16.75 19.91 0.41-0.02 0.75-5.66 0.75-12.53 0-7.67-0.39-12.5-1-12.5-0.6 0-1 4.16-1 10.5v10.5c-12.79-16.22-17.06-20.94-17.75-20.96-0.94-0.03-1.25 3.1-1.25 12.46zm40.12-0.12c-0.07 7.83 0.26 12.62 0.88 12.62 0.55 0 1-1.8 1-4v-4c10.46 0 11.52-0.38 14.08-3 2.37-2.44 2.82-3.61 2.39-6.25-0.29-1.79-1.42-4.15-2.53-5.25-1.51-1.52-3.67-2.09-8.85-2.37l-6.85-0.36zm25.46-11.82c-0.5 0.42-0.84 6.09-0.75 12.6 0.1 7.11 0.57 11.83 1.17 11.83 0.55 0 1.11-1.68 1.25-3.75 0.25-3.73 0.27-3.75 5-4 4.53-0.23 4.87-0.06 7.5 3.8 1.51 2.22 3.09 4.02 3.5 4 0.41-0.03 0.75-0.27 0.75-0.55 0-0.27-1.24-2.08-2.75-4.01l-2.75-3.51c4.8-4.34 5.51-5.93 5.53-8.73 0.02-2.58-0.64-4.37-2.12-5.75-1.59-1.47-3.89-2.09-8.78-2.35-3.65-0.2-7.04-0.01-7.55 0.42zm29.92 1.44c-1.65 1.1-3.55 3.01-4.21 4.25-0.67 1.23-1.24 3.93-1.25 5.99-0.02 2.07 0.63 5.1 1.46 6.75 0.82 1.65 2.85 3.68 4.5 4.5 1.65 0.83 4.69 1.5 6.75 1.5 2.06 0 5.21-0.9 7-2 1.79-1.1 3.7-3.12 4.25-4.5 0.55-1.37 1-4.07 1-6 0-1.92-0.68-4.85-1.5-6.5-0.85-1.69-3.02-3.65-5-4.5-1.93-0.82-4.96-1.49-6.75-1.49-1.79 0-4.6 0.91-6.25 2zm24.5-1.01c0 0.55 2.14 1.12 4.75 1.25l4.75 0.25c0.47 11.63 0.13 16.24-0.45 17.75-0.76 1.99-1.74 2.75-3.55 2.75-1.38 0-3.4-0.45-4.5-1-1.1-0.55-2.34-0.73-2.75-0.41-0.41 0.32 0.15 1.22 1.25 2.01 1.1 0.79 3.35 1.44 5 1.44 1.65 0 3.9-0.65 5-1.44 1.77-1.27 2.02-2.69 2.18-12.51l0.18-11.09c-9.22 0-11.86 0.45-11.86 1zm20 11.5v12.5c14.33 0 18-0.4 18-1 0-0.55-3.42-1.11-7.75-1.25l-7.75-0.25v-9c10.46-0.38 13.5-0.95 13.5-1.5 0-0.58-2.8-0.92-6.75-0.82l-6.75 0.19-0.5-9.37c11.83 0 15-0.42 15-1 0-0.58-3.5-1-8.5-1h-8.5zm28.25-10.49c-1.79 1.1-3.93 3.57-4.75 5.49-0.83 1.93-1.5 4.52-1.5 5.75 0.01 1.24 0.91 3.72 2 5.5 1.1 1.79 3.46 3.99 5.25 4.88 2.26 1.13 4.63 1.45 7.75 1.05 2.47-0.32 5.17-1.32 6-2.23 1.37-1.52 1.28-1.59-1-0.8-1.38 0.47-4.68 0.85-7.34 0.85-4.02 0-5.24-0.46-7.25-2.75-1.78-2.03-2.41-3.91-2.41-7.25 0-3.62 0.57-5.08 2.92-7.5 2.35-2.41 3.77-3 7.25-3.01 2.38-0.01 4.88 0.55 5.56 1.25 0.68 0.69 1.58 0.92 2 0.5 0.42-0.42-0.13-1.41-1.23-2.22-1.1-0.8-3.8-1.46-6-1.48-2.29-0.02-5.39 0.83-7.25 1.97zm18.75-1.01c0 0.55 1.91 1.12 4.25 1.25l4.25 0.25 0.93 23 1.07-23c6.59-0.38 8.5-0.95 8.5-1.5 0-0.59-3.83-1-9.5-1-5.67 0-9.5 0.41-9.5 1zm35.2 1c-1.55 1.41-2.13 2.96-1.95 5.22 0.18 2.3 0.97 3.58 2.75 4.46 1.37 0.68 4.52 1.82 7 2.53 3.64 1.05 4.55 1.77 4.78 3.79 0.16 1.38-0.29 3.11-1 3.86-0.84 0.88-2.82 1.2-5.78 0.92-2.48-0.23-5.29-0.73-6.25-1.1-0.96-0.37-1.75-0.23-1.75 0.32 0 0.55 1.12 1.45 2.5 2 1.37 0.55 4.41 1.02 6.75 1.04q4.25 0.03 5.85-1.75c0.88-0.98 1.9-2.69 2.26-3.79 0.39-1.16 0.04-2.93-0.85-4.25-0.83-1.23-2.97-2.52-4.76-2.85-1.79-0.33-4.71-1.23-6.5-2-2.43-1.04-3.25-2.03-3.25-3.9 0-1.59 0.82-2.91 2.25-3.63 1.35-0.68 4.15-0.88 7-0.5 2.92 0.39 4.75 0.25 4.75-0.37 0-0.55-1.01-1.21-2.25-1.48-1.24-0.27-3.85-0.49-5.8-0.5-2.18-0.01-4.41 0.76-5.75 1.98zm17.8-1c0 0.55 2.02 1 4.5 1h4.5c0 18.5 0.39 23 1 23 0.61 0 1-4.5 1-11.5v-11.5c6.97 0 9-0.45 9-1 0-0.6-4-1-10-1-6 0-10 0.4-10 1zm25.58-0.42c-0.5 0.42-0.84 6.08-0.75 12.59 0.13 8.71 0.5 11.83 1.42 11.83q1.25 0 1-4l-0.25-4c9.72 0 10.15 0.23 12.75 4.05 1.51 2.22 3.31 4.02 4 4 0.72-0.03-0.01-1.73-1.75-4.05l-3-4c4.78-4.19 5.5-5.75 5.5-8.38q0-3.56-2.28-5.84c-1.83-1.82-3.63-2.34-9-2.62-3.7-0.19-7.13 0-7.64 0.42zm25.57 9.51c0.33 9.55 0.5 10.22 3.1 12.5 2 1.76 3.9 2.41 7 2.38 2.34-0.01 4.96-0.58 5.84-1.25 0.87-0.67 2.11-2.23 2.75-3.47 0.64-1.23 1.16-6.3 1.16-11.25 0-5.66-0.37-8.81-1-8.5-0.56 0.28-1 4.5-1 9.5 0 7.67-0.3 9.3-2 11-1.11 1.12-3.33 2-5 2-1.65 0-3.74-0.33-4.64-0.75-0.9-0.41-2.25-1.98-3-3.5-0.8-1.62-1.36-6.02-1.36-10.75 0-5.13-0.39-8-1.1-8-0.74 0-0.98 3.23-0.75 10.09zm34.12-9.12c-1.23 0.47-3.37 2.24-4.75 3.94-1.93 2.37-2.51 4.21-2.48 7.84 0.04 4.12 0.54 5.25 3.75 8.46 3.09 3.09 4.42 3.71 7.96 3.75 2.34 0.02 5.6-0.63 7.25-1.46 1.65-0.82 2.77-1.95 2.5-2.5-0.31-0.61-1.38-0.41-2.75 0.51-1.24 0.83-3.94 1.51-6 1.5-2.95 0-4.5-0.76-7.25-3.51-2.83-2.83-3.5-4.26-3.5-7.5 0-3.02 0.7-4.75 2.87-7.09 2.61-2.81 3.33-3.06 7.75-2.68 2.69 0.23 5.67 0.72 6.63 1.1 0.96 0.37 1.75 0.22 1.75-0.33 0-0.55-1.46-1.45-3.25-2.01-1.79-0.56-4.38-0.98-5.75-0.94-1.38 0.05-3.5 0.46-4.73 0.92zm41.83 8.48c-0.1 9.34-0.03 9.62 2.9 12.55 2.35 2.36 3.88 3 7.08 3 3.21 0 4.69-0.63 7-3 2.81-2.88 2.92-3.35 2.92-12.5 0-5.66-0.4-9.5-1-9.5-0.59 0-1 3.67-1 9 0 8.21-0.22 9.22-2.45 11.5-1.62 1.65-3.58 2.51-5.75 2.53-2.14 0.02-4.09-0.78-5.53-2.25-1.97-2.02-2.22-3.26-2.15-10.97 0.05-4.8-0.36-8.96-0.92-9.31-0.63-0.39-1.03 2.85-1.1 8.95zm28.7-9.1c-0.39 0.3-0.51 4.05-0.28 8.35 0.24 4.29 0.44 9.72 0.45 12.05 0.02 2.34 0.48 4.25 1.03 4.25 0.55 0 1-1.8 1-4v-4c8.61 0 9.24 0.34 11.75 3.97 1.51 2.18 3.31 3.98 4 4 0.74 0.02 0.12-1.61-1.5-3.96l-2.75-4c4.53-4.47 5.56-6.54 5.54-8.26-0.02-1.51-1.13-3.98-2.46-5.5-2.11-2.4-3.27-2.79-9.25-3.09-3.76-0.19-7.15-0.1-7.53 0.19zm26.2 12.15v12.5c14.33 0 18-0.4 18-1 0-0.58-3.33-1-8-1h-8l0.5-9.5c10.84-0.4 13.3-0.89 13-1.5-0.28-0.55-3.43-1-7-1h-6.5v-9c11.83 0 15-0.42 15-1 0-0.58-3.5-1-8.5-1h-8.5z"/>
		<path id="Path 3" fill-rule="evenodd" class="s3" d="m654.23 282.38c-0.13 0.34 3.71 3.49 8.52 6.99 4.81 3.5 9.76 6.88 11 7.5 1.24 0.62 2.59 1.12 3 1.12 0.41-0.01-1.27-1.18-3.75-2.61-2.48-1.43-7.2-4.65-10.5-7.16-3.3-2.51-6.46-4.99-7.02-5.51-0.56-0.53-1.12-0.67-1.25-0.33zm64.27 20.55c1.1 1.19 3.43 2.71 5.17 3.37 2.84 1.07 2.99 1.33 1.5 2.47-1.35 1.02-1.13 1.02 1.11 0 1.53-0.7 2.76-1.61 2.75-2.02-0.02-0.41-1.04-0.74-2.28-0.72-1.24 0.02-4.05-1.16-6.25-2.63-3.39-2.25-3.7-2.32-2-0.47zm-159.53 6.82l-6.47 6.75c10.48-10.07 13.51-13.11 13.51-13.25-0.01-0.14-0.14-0.25-0.29-0.25-0.15 0-3.19 3.04-6.75 6.75zm-19.01 10.88c-1.55 1.88-2.14 3.89-2.06 7 0.05 2.41 0.77 5.72 1.6 7.37 0.83 1.65 1.73 3 2 3 0.27 0-0.17-1.35-1-3-0.83-1.65-1.52-4.91-1.53-7.25-0.03-2.76 0.68-5.21 2.01-7 1.12-1.51 1.84-2.75 1.6-2.75-0.25 0-1.43 1.19-2.62 2.63zm-31.91 25.35c-1.68 3.31-2.71 5.84-2.3 5.63 0.41-0.21 1.87-2.67 3.25-5.45 2.09-4.24 2.78-4.91 4.25-4.11 0.96 0.52 1.78 0.74 1.81 0.49 0.03-0.26-0.85-0.95-1.95-1.53-1.81-0.94-2.33-0.43-5.06 4.97zm771.3 29.02c0 4.68 0.17 6.48 0.38 4 0.21-2.48 0.21-6.3 0-8.5-0.21-2.2-0.38-0.18-0.38 4.5zm-413.85-0.27c2.2 0.21 6.03 0.21 8.5 0 2.48-0.21 0.68-0.38-4-0.38-4.67 0-6.7 0.17-4.5 0.38zm56.9 40.27c0.09 2.32 0.46 2.5 5.1 2.5 4.3 0 5.01-0.28 5.1-2q0.11-2.09-0.25-0.25c-0.27 1.36-1.36 1.75-4.85 1.75-3.9 0-4.55-0.3-4.85-2.25-0.28-1.84-0.33-1.8-0.25 0.25zm-8.9 0.85c0.37 0.85-7.84 1.22-31.75 1.41l-32.25 0.27c52.66 0.38 65.54 0.1 65.6-0.47 0.06-0.52-0.39-1.26-1-1.66-0.63-0.4-0.89-0.22-0.6 0.45zm-486 6.87c1.65 0.22 4.8 0.22 7 0.01 2.2-0.22 0.85-0.4-3-0.4-3.85-0.01-5.65 0.17-4 0.39zm419 2.02c3.3 0.2 8.93 0.2 12.5 0 3.58-0.19 0.88-0.35-6-0.35-6.87 0-9.8 0.16-6.5 0.35zm70.5 0c4.68 0.19 12.1 0.19 16.5 0 4.4-0.18 0.58-0.33-8.5-0.33-9.07 0-12.67 0.15-8 0.33zm309 8c3.58 0.2 8.97 0.19 12 0 3.03-0.2 0.1-0.36-6.5-0.36-6.6 0-9.07 0.17-5.5 0.36zm-107.53 2.73c-1.78 1.33-1.66 1.35 1.23 0.25 2.71-1.03 3.75-0.95 6.75 0.53 1.95 0.96 3.55 1.52 3.55 1.25 0-0.27-1.35-1.18-3-2-1.65-0.82-3.8-1.5-4.78-1.5-0.97 0-2.66 0.66-3.75 1.47zm-14.47 8.03c-3.57 1.87-6.16 3.42-5.75 3.45 0.41 0.03 3.45-1.3 6.75-2.95 3.3-1.65 6-3.23 6-3.5 0-0.27-0.11-0.48-0.25-0.45-0.14 0.03-3.17 1.58-6.75 3.45zm-378.5-1.5c0.28 0.55 2.41 1.89 4.75 2.98 2.34 1.09 6.05 1.93 8.25 1.87 3.87-0.1 3.84-0.12-1-0.79-2.75-0.38-6.69-1.67-8.75-2.87-2.06-1.21-3.52-1.74-3.25-1.19zm193.5 36.73c1.93 0.21 5.3 0.21 7.5 0 2.2-0.22 0.63-0.39-3.5-0.39-4.12 0-5.92 0.17-4 0.39zm-222.5 5.01c3.3 0.2 8.93 0.2 12.5 0 3.58-0.19 0.88-0.35-6-0.35-6.87 0-9.8 0.16-6.5 0.35zm189 0.98c1.65 0.22 4.8 0.22 7 0.01 2.2-0.22 0.85-0.4-3-0.4-3.85-0.01-5.65 0.17-4 0.39zm24 1c1.65 0.22 4.8 0.22 7 0.01 2.2-0.22 0.85-0.4-3-0.4-3.85-0.01-5.65 0.17-4 0.39zm-333.03 47.53l-6.97 7.25c11.25-10.85 14.51-14.11 14.51-14.25-0.01-0.14-0.13-0.25-0.29-0.25-0.15 0-3.41 3.26-7.25 7.25zm331.03-1.51c3.3 0.2 8.25 0.2 11 0 2.75-0.21 0.05-0.37-6-0.37-6.05 0.01-8.3 0.17-5 0.37zm-507.61 7.01c1.21 1.51 3.86 5.13 5.9 8.04 2.04 2.91 3.82 5.27 3.96 5.25 0.14-0.02-0.48-1.28-1.38-2.79-0.9-1.51-3.28-5.11-5.3-8-2.02-2.89-4.05-5.25-4.52-5.25-0.47 0 0.13 1.24 1.34 2.75zm402.11 3.99c3.58 0.2 8.98 0.19 12 0 3.03-0.2 0.1-0.36-6.5-0.36-6.6 0-9.07 0.17-5.5 0.36zm248.97 6.01l-6.47 6.75c10.48-10.08 13.51-13.11 13.51-13.25-0.01-0.14-0.14-0.25-0.29-0.25-0.15 0-3.19 3.04-6.75 6.75zm-247.47 0.97c1.65 0.22 4.8 0.22 7 0.01 2.2-0.22 0.85-0.4-3-0.4-3.85-0.01-5.65 0.17-4 0.39zm-249.17 31.78c0 3.85 0.18 5.2 0.4 3 0.21-2.2 0.21-5.35-0.01-7-0.22-1.65-0.4 0.15-0.39 4zm98.17 3.22c1.65 0.22 4.8 0.22 7 0.01 2.2-0.22 0.85-0.4-3-0.4-3.85-0.01-5.65 0.17-4 0.39zm258 20.02c3.3 0.2 8.93 0.2 12.5 0 3.58-0.19 0.88-0.35-6-0.35-6.87 0-9.8 0.16-6.5 0.35zm-24.3 11.51l0.19 7.25c0.58-12.86 0.82-13.53 2.86-13.86 1.85-0.3 1.76-0.39-0.5-0.5l-2.75-0.14zm245.72 58.25c-1.88 1.37-6.12 3.21-9.42 4.11-3.85 1.04-8.59 1.49-13.24 1.26-6.95-0.36-7.24-0.28-7.25 1.88 0 1.24-0.33 3.04-0.73 4-0.52 1.24-0.38 1.53 0.5 1 0.67-0.41 4.37-0.08 8.22 0.75 3.85 0.83 9.7 1.5 13 1.5 3.5 0 8.3-0.83 11.5-2 3.03-1.1 5.73-2.45 6-3 0.33-0.65-2.36-0.77-7.75-0.32l-8.25 0.67c9.3-8.65 11.74-11.42 11.42-11.74-0.32-0.32-2.12 0.53-4 1.89zm-268.92 86.24c3.58 0.2 8.98 0.19 12 0 3.03-0.2 0.1-0.36-6.5-0.36-6.6 0-9.07 0.17-5.5 0.36zm-128 25.61c3.58 3.74 7.85 7.74 9.5 8.89 1.65 1.14 2.55 1.65 2 1.13-0.55-0.53-4.82-4.53-9.5-8.89l-8.5-7.93zm250.48 6.9l-8.98 9.25c14.35-13.95 18.51-18.11 18.51-18.25 0-0.14-0.13-0.25-0.28-0.25-0.15 0-4.31 4.16-9.25 9.25zm-23.39 20.06l-5.42 4.19c144.93 0.78 186.49 1.39 187.33 1.89 1.25 0.75 1.28 0.67 0.2-0.5-1.09-1.17-16.07-1.43-93.5-1.62l-92.2-0.23c7.37-5.46 9.5-7.27 9.5-7.54 0-0.28-0.11-0.48-0.25-0.44-0.13 0.03-2.68 1.94-5.66 4.25zm-189.09-1.97c1.38 0.78 5.19 2.27 8.47 3.29 5.93 1.86 5.42 1.87-93 2.38l-98.97 0.5c155.39 0.38 200.43 0.13 200.35-0.31-0.09-0.43-3.8-2.04-8.25-3.57-4.45-1.53-8.77-2.99-9.6-3.25-0.82-0.26-0.37 0.17 1 0.96zm-45.5 33.41c76.45 0.14 201.1 0.14 277 0 75.9-0.14 13.35-0.26-139-0.26-152.35 0-214.45 0.12-138 0.26zm-133 22.99c4.95 0.19 12.6 0.19 17 0 4.4-0.18 0.35-0.33-9-0.33-9.35 0-12.95 0.15-8 0.33zm303.98 31.51l0.02 31.25h37.51l-37.01-0.5-0.54-62zm227.52-22.75v5.5l-8.5 0.65 9.5 0.35c0-10.95 0.03-11 3-11 2.92 0 3.01 0.14 3.25 5.25l0.25 5.25c14.25 0.49 14.5 0.58 14.5 3 0 2.41-0.25 2.51-7.25 2.75l-7.25 0.25-0.08 27 0.58-26.5 14.5-0.5v-6l-14.5-0.5v-11h-8zm-358 38.5v33l8.5-0.34-7.5-0.66v-64c5.76 0 6 0.28 6 3.5 0 1.92 0.34 3.51 0.75 3.53 0.42 0.02 1.65-0.99 2.75-2.25l2-2.28-4.56 4c0.06-7.47 0.02-7.5-3.94-7.5h-4zm353.75-26.33l4.25 0.33 0.56 31.5 0.44-32.5-9.5 0.35zm-466.1 7.79c-0.71 1.91-1.29 6.52-1.31 10.25l-0.03 6.78c1-12.4 1.8-17.01 2.42-18.25 0.63-1.23 0.92-2.25 0.66-2.25-0.26 0-1.04 1.56-1.74 3.47zm223.1 2.19l3.25 0.34 0.6 23.5-0.1-24c-6.86-0.17-6.87-0.16-3.75 0.16zm-122.75 5.84v3.5c-36.19 0.46-39.38 0.74-39.66 2-0.19 0.83-0.11 0.94 0.16 0.25 0.38-0.94 5.44-1.25 20.5-1.25h20c0-6.2-0.22-8-0.5-8-0.27 0-0.5 1.58-0.5 3.5zm-55 1v2.5c-31.8 0.41-39.4 0.89-39.5 1.5-0.09 0.55-0.01 0.67 0.17 0.25 0.18-0.41 9.33-0.75 20.33-0.75h20c0-4.65-0.22-6-0.5-6-0.27 0-0.5 1.13-0.5 2.5zm139 10.87c1.93 2.09 4.74 4.44 6.25 5.22 1.52 0.78 3.09 1.22 3.5 0.98 0.42-0.24-0.37-0.77-1.75-1.17-1.37-0.41-4.52-2.56-7-4.78l-4.5-4.05zm-26.04 2.77c-0.8 1.76-3.03 4.52-4.96 6.13-1.92 1.62-2.6 2.48-1.5 1.93 1.1-0.56 2.96-2.07 4.13-3.36 1.17-1.28 2.63-3.35 3.25-4.59 0.62-1.24 0.99-2.49 0.83-2.78-0.16-0.29-0.95 0.91-1.75 2.67zm322.04 3.14c1.86 2.06 3.4 2.76 6 2.71 1.93-0.03 4.63-0.75 6-1.59 1.59-0.97 1.77-1.27 0.5-0.8-1.1 0.4-3.8 0.91-6 1.13-3.14 0.31-4.53-0.1-6.5-1.91l-2.5-2.32zm-476.58 0.55c0.32 0.64 2.72 2.53 5.33 4.19 2.62 1.66 5.43 2.99 6.25 2.96 0.83-0.03-0.07-0.74-2-1.58-1.92-0.83-5-2.7-6.83-4.14-1.83-1.44-3.07-2.08-2.75-1.43zm-74.16 6.18c0.34 1.25 3.16 1.5 17.33 1.54l16.91 0.04c-27.95-0.56-33.25-1.04-33.82-1.87q-0.86-1.28-0.42 0.29zm39.17 31.96c0.32 0.57 0.1 2.05-0.48 3.29-0.89 1.9-0.86 2.01 0.25 0.7 0.92-1.09 2.71-1.46 6.05-1.25l4.75 0.3c0.47 21.06 0.72 22.51 2.25 22.73 1.58 0.24 1.75-0.85 1.75-11.23v-11.5c7.25-0.43 8.5-0.94 8.5-2 0-1.24-2.1-1.55-11.82-1.79-7.91-0.18-11.63 0.06-11.25 0.75zm27.19 0.26c-0.3 0.77-0.45 6.77-0.33 13.33 0.18 9.86 0.48 11.95 1.71 11.95 1.13 0 1.56-1.42 1.75-5.75l0.25-5.75c11.63 0.38 15.01 0.16 15.01-0.25-0.01-0.42-3.61-0.75-8.01-0.75h-8c0 9.33-0.44 12-1 12-0.61 0-1-4.84-1-12.5 0-7.67 0.39-12.5 1-12.5 0.55 0 1 2.47 1 5.5v5.5l9.5-0.35-8.5-0.65c-0.38-8.02-1.02-10.53-1.67-10.76-0.64-0.22-1.41 0.22-1.71 0.98zm77.88-0.56c-0.46 0.37-0.76 4.64-0.66 9.5 0.12 6.81-0.12 8.68-1.09 8.14-0.71-0.39-0.6 0.06 0.25 1.05 0.83 0.95 1.62 1.72 1.75 1.69 0.14-0.02 0.2-0.38 0.13-0.79-0.06-0.42-0.06-4.92 0-10 0.07-5.42 0.54-9.25 1.12-9.25 0.62 0 1 4.83 1 12.5 0 6.87-0.33 12.5-0.75 12.51-0.41 0.01-1.4-0.55-2.2-1.25-1.27-1.1-1.27-1.04 0 0.53 0.8 0.99 2.02 1.78 2.7 1.75 0.94-0.03 1.25-3.43 1.25-13.54 0-10.59-0.29-13.5-1.33-13.5-0.73 0-1.71 0.3-2.17 0.66zm121.18 0.05c-0.27 0.43 3.52 0.67 8.42 0.54 5.43-0.16 8.9 0.14 8.9 0.75 0 0.55-2.81 1.14-6.25 1.31l-6.25 0.32c11.58-0.12 13-0.46 13-1.63 0-1.2-1.75-1.56-8.66-1.79-4.76-0.16-8.89 0.07-9.16 0.5zm52.32 0.02c3.03 0.21 7.53 0.2 10 0 2.48-0.21 0-0.37-5.5-0.37-5.5 0-7.52 0.17-4.5 0.37zm58.31-0.04c5.59 0.18 9.69 0.73 9.69 1.31 0 0.55-2.02 1-4.5 1h-4.5c0 18.5-0.39 23-1 23-0.61 0-1-4.5-1-11.5v-11.5c-7.16 0-9.2-0.51-9.5-1.25-0.27-0.69-0.35-0.58-0.17 0.25 0.22 0.98 1.75 1.58 4.5 1.75l4.17 0.25c0.46 20.47 0.77 22.5 2 22.5 1.23 0 1.55-2.03 1.75-11.25l0.25-11.25c7.83 0 8.65-0.34 8.58-1.75-0.09-1.54-1.3-1.76-10.04-1.81l-9.93-0.06zm41.39-0.02c0.69 0.48 1.35 4.17 1.57 8.83l0.38 8c-0.13-15.01-0.47-16.93-1.64-17.25q-1.55-0.43-0.31 0.42zm49.89 0.3c-0.32 0.56-0.36 1.48-0.08 2.03 0.27 0.55 2.3 1 4.5 1h4c0.45 20.47 0.77 22.5 2 22.5 1.23 0 1.54-2.03 1.75-11.25l0.25-11.25c7.25-0.43 8.5-0.94 8.5-2 0-1.22-1.93-1.55-10.17-1.78-6.26-0.18-10.39 0.11-10.75 0.75zm42.95 0.28c-0.34 0.79-0.47 4.99-0.28 9.34l0.34 7.91c0.32-13.78 0.83-17.5 1.41-17.5 0.56 0 1.1 3.67 1.25 8.5l0.25 8.5c0-14.38-0.4-17.48-1.17-17.75-0.65-0.23-1.45 0.22-1.8 1zm37.01 0.02c-0.26 0.74-0.38 6.72-0.26 13.29l0.22 11.94 19 0.12-18.5-0.62v-25c13.5 0 17 0.41 17 1 0 0.58-3.17 1-7.5 1h-7.5l0.35 9.5 0.65-8.5c12.91-0.45 14.5-0.83 14.5-2 0-1.2-1.77-1.56-8.74-1.79-6.62-0.22-8.85 0.04-9.22 1.06zm-312.29 1.27c1.51 0.8 3.29 2.47 3.96 3.71 0.66 1.24 1.5 4.5 1.86 7.25l0.64 5c0.22-6.59-0.39-9.85-1.21-11.5-0.83-1.65-2.52-3.68-3.75-4.51-1.24-0.83-2.7-1.48-3.25-1.46-0.55 0.03 0.23 0.71 1.75 1.51zm227.53-0.22c1.25 0.65 2.26 1.52 2.25 1.93-0.02 0.41-0.82 0.45-1.78 0.08-0.97-0.37-3.68-0.87-6.04-1.11-2.36-0.24-4.7-0.05-5.2 0.42-0.52 0.49 1.34 0.89 4.29 0.94 2.86 0.04 6.21 0.38 7.45 0.75 1.63 0.48 2.25 0.26 2.25-0.83 0-0.83-0.9-1.95-2-2.5-1.1-0.55-2.34-0.97-2.75-0.93-0.42 0.03 0.27 0.6 1.53 1.25zm-272.33 11.93c0.04 10.2 0.3 12.25 1.55 12.25 1.01 0 1.66-1.35 2-4.15 0.27-2.28 0.16-3.96-0.25-3.75-0.42 0.22-0.75 1.97-0.75 3.9 0 1.92-0.45 3.5-1 3.5-0.6 0-1.12-4.86-1.3-12l-0.29-12zm26.53-8c-1.29 2.11-1.93 4.82-1.84 7.75l0.13 4.5c0.95-7.82 1.98-11.3 2.91-12.79 0.93-1.49 1.49-2.71 1.24-2.71-0.25 0-1.35 1.46-2.44 3.25zm33.26-2.55c4.26 0.36 4.78 0.68 5.14 3.1 0.35 2.36 0.38 2.32 0.26-0.3-0.14-2.9-0.32-3.01-5.15-3.1l-5-0.11zm242.11 7.8c0 4.95 0.17 7.2 0.38 5 0.21-2.2 0.21-6.25 0-9-0.2-2.75-0.38-0.95-0.38 4zm-220.85 3.22c1.65 0.22 4.8 0.23 7 0.01 2.2-0.21 0.85-0.39-3-0.4-3.85 0-5.65 0.17-4 0.39zm279-0.05c-0.46 0.37-0.76 2.62-0.67 5l0.17 4.33 16.5-0.4-15.5-0.6v-8l13.5-0.61c-10.21-0.3-13.55-0.09-14 0.28zm-282.12 4.83l0.12 4h15.5l-15-0.5-0.74-7.5zm1.62 7.24c2.47 0.2 6.75 0.2 9.5 0 2.75-0.21 0.72-0.38-4.5-0.38-5.23 0-7.48 0.17-5 0.38z"/>
		<path id="Path 4" class="s0" d="m994.2 390c-1.21 1.1-2.46 3.01-2.77 4.25-0.34 1.33 0.43 4.5 1.88 7.75 1.34 3.02 3.85 7.41 5.57 9.75 1.71 2.34 3.68 4.27 4.37 4.3 0.69 0.02 2.94-1.78 5-4 2.06-2.23 4.03-5.06 4.37-6.3 0.43-1.56-0.3-3.63-2.36-6.75-1.64-2.48-4.62-5.96-6.62-7.75-2-1.79-4.45-3.25-5.44-3.25-1 0-2.8 0.9-4 2zm38.85 20.66c-0.8 0.28-1.36 1.14-1.25 1.92 0.11 0.78 1.89 2.85 3.95 4.59 2.06 1.75 5.55 3.98 7.75 4.96 3.15 1.4 4.28 1.52 5.33 0.58 0.73-0.67 1.1-2.11 0.81-3.21-0.29-1.1-2.91-3.69-5.83-5.75-2.92-2.06-6.21-3.71-7.31-3.67-1.1 0.04-2.65 0.3-3.45 0.58zm46.04 7.09c-5.17 3.71-9.56 7.31-9.75 8-0.21 0.78 0.69 1.25 2.41 1.24 1.51 0 5-1.3 7.75-2.87 2.75-1.58 6.46-4.27 8.25-5.99 1.79-1.72 3.25-4.03 3.25-5.13 0-1.1-0.56-2-1.25-2-0.69 0.01-5.48 3.04-10.66 6.75zm14.41 7.43c-2.75 1.67-8.04 5.46-11.75 8.42-3.71 2.97-6.6 5.96-6.42 6.65 0.18 0.69 1.53 1.36 3 1.5 1.47 0.14 4.47-0.65 6.67-1.75 2.2-1.1 6.92-4.81 10.49-8.25 3.58-3.44 6.5-7.04 6.5-8 0.01-1.03-0.71-1.72-1.74-1.67-0.96 0.04-4 1.44-6.75 3.1zm-39.5 234.53c-0.83 0.3-2.3 1.28-3.28 2.17-0.98 0.89-1.77 2.18-1.75 2.87 0.02 0.71 0.74 1.01 1.67 0.7 0.91-0.3 2.47-1.88 3.47-3.5 1-1.62 1.72-2.91 1.6-2.87-0.11 0.04-0.89 0.33-1.71 0.63zm-460.59 222.46c0.32 4.58 0.58 15.98 0.58 25.33v17c23.96-1.05 27.28-1.57 30.51-3.25 2.2-1.14 5.66-3.81 7.69-5.92 2.03-2.1 4.17-5.07 4.75-6.58 0.58-1.51 1.07-6.01 1.07-10 0.01-6.41-0.36-7.88-3.25-12.71-2.21-3.71-4.84-6.45-8.18-8.5-4.79-2.96-5.28-3.05-19.33-3.37l-14.42-0.32zm313.59 2.32v10.5c18.21 0 25.19-0.45 27.25-1 2.13-0.57 4.63-2.19 5.78-3.75 1.12-1.51 2.02-3.98 2-5.5-0.01-1.51-0.7-4.1-1.53-5.75-1.05-2.1-2.62-3.29-5.25-3.99-2.06-0.55-9.26-1-16-1l-12.25-0.01zm-235.66 5.41c-2.29 1.02-5.06 3.15-6.16 4.73-1.09 1.57-2.26 4.1-2.59 5.61l-0.59 2.75c28.14 0 32-0.3 31.98-1.25-0.01-0.68-1.02-3.05-2.25-5.25-1.48-2.65-3.75-4.76-6.73-6.25-2.48-1.25-5.62-2.25-7-2.23-1.37 0.01-4.37 0.87-6.66 1.89zm54.63 0.42c-2.83 1.47-5.29 3.76-6.7 6.25-1.23 2.16-2.24 4.49-2.25 5.17-0.02 0.95 3.84 1.25 15.98 1.25 14.56 0 16-0.15 16.03-1.75 0.01-0.96-1-3.32-2.26-5.25-1.26-1.92-4.31-4.51-6.78-5.75-2.47-1.25-5.63-2.26-7.02-2.25-1.4 0-4.55 1.05-7 2.33zm60.1-0.48c-2.43 1.05-5.27 3.2-6.3 4.78-1.04 1.58-2.39 4.67-3 6.87-0.83 2.99-0.82 5.21 0.06 8.75 0.64 2.62 1.96 5.94 2.92 7.39 0.96 1.45 3.44 3.47 5.5 4.5 2.06 1.02 5.89 1.88 8.5 1.89 3.3 0.02 5.8-0.66 8.19-2.25 1.9-1.25 4.37-3.85 5.5-5.78 1.46-2.48 2.05-5.26 2.06-9.57 0-4.95-0.51-6.84-2.75-10.25-1.51-2.3-4.1-4.85-5.75-5.68-1.65-0.82-4.69-1.73-6.75-2.02-2.47-0.35-5.26 0.12-8.18 1.37zm194.43-0.8c-1.65 0.53-4.29 2.2-5.87 3.71-1.58 1.51-3.5 4.21-4.25 5.99-0.76 1.79-1.38 5.28-1.38 7.75 0 2.48 0.59 5.97 1.31 7.75 0.72 1.79 3.06 4.6 5.19 6.25 3.05 2.37 5.04 3.07 9.43 3.3 4.36 0.22 6.43-0.21 9.5-2 2.45-1.44 4.8-3.99 6.27-6.8 1.36-2.61 2.33-6.17 2.3-8.5-0.02-2.2-0.93-5.91-2.02-8.25-1.16-2.48-3.54-5.27-5.73-6.7-2.06-1.35-5.55-2.68-7.75-2.96-2.2-0.28-5.35-0.07-7 0.46zm56 0.84c-2.2 1.02-4.98 2.92-6.18 4.23-1.2 1.31-2.67 3.62-3.25 5.13-0.59 1.52-1.07 4.67-1.08 7 0 2.45 0.95 6.14 2.25 8.7 1.24 2.44 3.53 5.36 5.09 6.5 1.94 1.41 4.77 2.16 9 2.39 5.16 0.28 6.74-0.05 9.67-2.01 1.93-1.29 4.52-4.36 5.76-6.83 1.25-2.49 2.24-6.28 2.23-8.5-0.02-2.2-0.86-5.8-1.87-8-1.01-2.2-2.69-4.78-3.73-5.74-1.04-0.96-3.69-2.4-5.89-3.21-2.2-0.8-4.9-1.47-6-1.48-1.1-0.01-3.8 0.81-6 1.82zm-129.5 23.11v11c18.99-0.06 26.53-0.48 29-0.96 2.82-0.55 5.34-1.84 6.75-3.46 1.41-1.62 2.25-3.88 2.25-6.08 0-1.92-0.67-4.85-1.5-6.5-0.93-1.86-2.73-3.38-4.75-4.01-1.79-0.56-9.66-1.01-17.5-1l-14.25 0.01zm-323 56.5v5.5c9.01 0.06 10.99-0.44 12.23-1.71 0.94-0.98 1.73-2.8 1.75-4.04 0.01-1.23-0.65-2.92-1.48-3.75-0.97-0.97-3.44-1.5-7-1.5h-5.5zm100.47-2.42c-1.9 2.16-2.67 4.1-2.59 6.5 0.07 2.05 1.12 4.63 2.62 6.42 2.13 2.55 3.21 3.01 7.25 3.03 3.83 0.02 5.23-0.48 7.25-2.58 1.88-1.96 2.5-3.68 2.5-6.95 0-3.26-0.62-4.98-2.5-6.94-2-2.09-3.42-2.6-7.17-2.58-3.94 0.02-5.08 0.5-7.36 3.1zm68.72 2.42l0.31 5.5c8.52 0.06 10.51-0.46 11.73-1.71 0.94-0.98 1.75-2.69 1.78-3.79 0.03-1.1-0.75-2.77-1.73-3.72-1.22-1.19-3.44-1.73-7.09-1.75l-5.31-0.03zm25.81 0v5.5c7.36 0.03 10.33-0.53 11.35-1.23 1.1-0.76 1.84-2.47 1.84-4.27 0-1.79-0.74-3.51-1.84-4.26-1.02-0.7-3.99-1.26-6.6-1.25l-4.75 0.01zm27.5-3.04c-1.76 1.8-2.42 3.6-2.46 6.75-0.03 2.36 0.62 5.31 1.45 6.54 0.83 1.24 3.2 2.74 5.26 3.33 2.68 0.77 4.54 0.77 6.5 0 1.51-0.59 3.39-2.09 4.17-3.33 0.78-1.23 1.51-3.15 1.61-4.25 0.11-1.1 0.16-2.9 0.12-4-0.05-1.1-1.22-3.23-2.62-4.75-2.05-2.22-3.4-2.75-7.08-2.75-3.5 0-5.09 0.57-6.95 2.46zm172.5 3.04v5.5c10.09 0 11.25-0.37 12.51-2.25 0.83-1.23 1.5-2.81 1.5-3.5-0.01-0.68-0.91-2.15-2.01-3.25-1.47-1.46-3.33-2-7-2h-5zm130 0v5.5c9.01 0.06 10.99-0.44 12.22-1.71 0.95-0.98 1.76-2.69 1.79-3.79 0.03-1.1-0.75-2.77-1.73-3.72-1.22-1.18-3.44-1.73-7.03-1.75l-5.25-0.03z"/>
		<path id="Path 5" class="s1" d="m913.5 924.74c3.85 0.19 9.7 0.19 13 0 3.3-0.2 0.15-0.35-7-0.35-7.15 0-9.85 0.16-6 0.35z"/>
		<path id="Path 6" class="s2" d="m627 962c0 0.55 2.02 1 4.5 1h4.5c0 18.5 0.39 23 1 23 0.61 0 1-4.5 1-11.5v-11.5c6.98 0 9-0.45 9-1 0-0.6-4-1-10-1-6 0-10 0.4-10 1zm427 0c0 0.55 1.8 1 4 1h4c0 18.5 0.39 23 1 23 0.61 0 1-4.5 1-11.5v-11.5c6.97 0 9-0.45 9-1 0-0.6-3.83-1-9.5-1-5.67 0-9.5 0.4-9.5 1z"/>
		<path id="Path 7" class="s3" d="m1094 433.21c-3.58 3.36-4.7 4.73-2.5 3.04 2.2-1.68 5.32-4.46 6.92-6.16 1.61-1.7 2.74-3.07 2.5-3.04-0.23 0.02-3.34 2.79-6.92 6.16zm-43.5 226.46c-1.1 0.22-5.15 1.18-9 2.12l-7 1.71c12.92 1 12.93 1.01 13.64 4.5 0.42 2.04 1.89 4.43 3.54 5.75 1.55 1.23 3.61 2.24 4.57 2.25 0.96 0 2.97-1.69 4.46-3.75 1.49-2.06 2.73-3.85 2.75-3.96 0.02-0.12 1.84 0.25 4.04 0.82 2.2 0.56 4.67 0.87 5.5 0.67 0.97-0.24 0.1-1.26-2.5-2.91-2.2-1.4-6.03-3.66-8.5-5.01-2.47-1.35-5.63-2.48-7-2.52-1.38-0.04-3.4 0.11-4.5 0.33zm-452 214.07c3.3 0.2 8.92 0.2 12.5 0 3.58-0.19 0.87-0.35-6-0.35-6.88 0-9.8 0.16-6.5 0.35zm307.98 0.58c-0.26 0.73-0.36 5.79-0.23 11.25l0.25 9.93 16 0.12-15.5-0.62v-21l24.5-0.57c-21.7-0.38-24.66-0.12-25.02 0.89zm-313.06 30.18c0 11 0.15 15.73 0.32 10.5 0.18-5.23 0.18-14.23 0.01-20-0.18-5.77-0.33-1.5-0.33 9.5zm44.91-5c0 3.85 0.18 5.2 0.4 3 0.21-2.2 0.21-5.35-0.01-7-0.22-1.65-0.4 0.15-0.39 4zm23.25 0c-0.32 0.83-0.58 2.17-0.58 3 0 1.28 2.41 1.46 16.67 1.25 13.86-0.21 16.72-0.5 17-1.75 0.18-0.83 0.1-0.94-0.17-0.25-0.37 0.93-4.63 1.25-16.5 1.25h-16c0.66-3.87 0.7-5 0.51-5-0.19 0-0.6 0.67-0.93 1.5zm87.42 2.5c0 0.61-6.27 1.11-16.25 1.28l-16.25 0.27c31.07 0.42 33.5 0.23 33.5-1.05 0-0.83-0.23-1.5-0.5-1.5-0.27 0-0.5 0.45-0.5 1zm157.21 10.75l0.22 11.75 0.57-22.5 28.5-0.56-29.5-0.44zm166.76 49c0.02 0.77-1.6 1.35-4.22 1.5l-4.25 0.25v22.5l0.5-22c6.2 0 8.22-0.45 8.5-1 0.27-0.55 0.26-1.34-0.03-1.75-0.29-0.41-0.52-0.19-0.5 0.5zm-314.97 2c3.21 0.22 6.33 1.08 7.5 2.06l2 1.69c-3.69-4.21-4.87-4.53-9.5-4.35l-5.5 0.22zm24.5-0.06c2.2 0.19 5.01 0.56 6.25 0.83 1.23 0.26 2.67 1.49 3.18 2.73 0.73 1.74 0.95 1.85 1 0.5 0.04-0.96-0.95-2.43-2.18-3.26-1.38-0.92-4.19-1.44-7.25-1.33-4.59 0.16-4.67 0.21-1 0.53zm-4.1 6.31l0.1 5.5 9 0.16-8.5-0.66-0.69-10.5z"/>
		<path id="Path 8" class="s0" d="m1058.49 666.75c-0.39 2.61-0.89 5.31-1.1 6-0.22 0.69 0.06 1.25 0.61 1.25 0.55 0 1.67-1.35 2.5-3 0.83-1.65 1.5-4.35 1.5-6 0-1.91-0.51-3-1.4-3-0.9 0-1.65 1.68-2.11 4.75z"/>
	</g>
</svg>